<?xml version="1.0" standalone="no"?><svg xmlns="http://www.w3.org/2000/svg" viewBox="0 0 1440 320"><path fill="#f3f4f5" fill-opacity="1" d="M0,64L0,256L84.7,256L84.7,64L169.4,64L169.4,160L254.1,160L254.1,224L338.8,224L338.8,64L423.5,64L423.5,288L508.2,288L508.2,128L592.9,128L592.9,128L677.6,128L677.6,192L762.4,192L762.4,288L847.1,288L847.1,288L931.8,288L931.8,256L1016.5,256L1016.5,256L1101.2,256L1101.2,160L1185.9,160L1185.9,224L1270.6,224L1270.6,32L1355.3,32L1355.3,128L1440,128L1440,320L1355.3,320L1355.3,320L1270.6,320L1270.6,320L1185.9,320L1185.9,320L1101.2,320L1101.2,320L1016.5,320L1016.5,320L931.8,320L931.8,320L847.1,320L847.1,320L762.4,320L762.4,320L677.6,320L677.6,320L592.9,320L592.9,320L508.2,320L508.2,320L423.5,320L423.5,320L338.8,320L338.8,320L254.1,320L254.1,320L169.4,320L169.4,320L84.7,320L84.7,320L0,320L0,320Z"></path></svg>