<svg height="383pt" viewBox="-32 0 383 383.921" width="383pt" xmlns="http://www.w3.org/2000/svg"><path d="m273.519531 46.785156c-62.382812-62.382812-163.886719-62.375-226.269531 0-62.386719 62.382813-62.386719 163.886719 0 226.273438 27.125 27.125 61.648438 42.421875 97.132812 45.957031v32.90625h-80v32h192v-32h-80v-32.898437c35.488282-3.535157 70.007813-18.839844 97.136719-45.957032 30.226563-30.226562 46.863281-70.410156 46.863281-113.144531 0-42.738281-16.636718-82.921875-46.863281-113.136719zm-203.648437 22.625c24.960937-24.953125 57.730468-37.425781 90.511718-37.425781 27.730469 0 55.417969 9.039063 78.410157 26.898437l-22.863281 22.863282c-37.464844-26.640625-89.855469-23.28125-123.433594 10.285156-33.566406 33.570312-36.925782 85.96875-10.296875 123.433594l-22.863281 22.863281c-38.96875-50.167969-35.527344-122.847656 10.535156-168.917969zm135.769531 135.765625c-24.9375 24.9375-65.511719 24.945313-90.472656.042969l-.078125-.082031c-24.914063-24.960938-24.898438-65.527344.039062-90.472657 12.480469-12.480468 28.863282-18.710937 45.253906-18.710937 16.386719 0 32.761719 6.230469 45.242188 18.695313l.039062.039062c24.921876 24.953125 24.921876 65.539062-.023437 90.488281zm45.246094 45.257813c-46.054688 46.054687-118.742188 49.503906-168.917969 10.527344l22.863281-22.863282c16.578125 11.785156 36.039063 17.773438 55.542969 17.773438 24.585938 0 49.167969-9.351563 67.882812-28.070313 33.558594-33.566406 36.917969-85.96875 10.285157-123.433593l22.867187-22.871094c17.429688 22.359375 26.972656 49.640625 26.972656 78.425781 0 34.183594-13.308593 66.335937-37.496093 90.511719zm0 0"/><path d="m136.382812 143.921875h48v32h-48zm0 0"/></svg>