<?xml version="1.0" encoding="iso-8859-1"?>
<!-- Generator: Adobe Illustrator 19.0.0, SVG Export Plug-In . SVG Version: 6.00 Build 0)  -->
<svg version="1.1" id="Capa_1" xmlns="http://www.w3.org/2000/svg" xmlns:xlink="http://www.w3.org/1999/xlink" x="0px" y="0px"
	 viewBox="0 0 512 512" style="enable-background:new 0 0 512 512;" xml:space="preserve">
<path style="fill:#F46095;" d="M510.697,315.558H1.303c-0.72,0-1.303-0.583-1.303-1.303V197.745c0-0.72,0.583-1.303,1.303-1.303
	h509.394c0.72,0,1.303,0.583,1.303,1.303v116.509C512,314.975,511.417,315.558,510.697,315.558z"/>
<path style="fill:#E54E8C;" d="M20.605,314.255V197.745c0-0.72,0.583-1.303,1.303-1.303H1.303c-0.72,0-1.303,0.583-1.303,1.303
	v116.509c0,0.72,0.583,1.303,1.303,1.303h20.605C21.189,315.558,20.605,314.975,20.605,314.255z"/>
<g>
	<path style="fill:#D6D6D8;" d="M222.775,293.011h-1.878c-0.457,0-0.857-0.301-0.985-0.74l-17.348-59.792
		c-0.331-1.14-2.01-0.901-2.01,0.286v41.425c0,4.877,0.185,8.009,0.536,9.417c1.082,3.877,3.647,5.816,7.66,5.816h0.448
		c0.566,0,1.026,0.459,1.026,1.026v1.536c0,0.566-0.459,1.026-1.026,1.026h-20.938c-0.566,0-1.026-0.459-1.026-1.026v-1.536
		c0-0.566,0.459-1.026,1.026-1.026h0.763c1.695,0,3.206-0.564,4.521-1.732c1.237-1.095,2.022-2.726,2.38-4.949
		c0.261-1.664,0.396-4.514,0.396-8.553v-42.983c0-2.574-0.129-4.254-0.351-5.068c-0.791-3.333-3.253-3.804-6.682-3.804
		c-0.997,0-2.052,0.109-2.052-1.026v-1.472c0-0.566,0.459-1.026,1.026-1.026h19.721c0.456,0,0.857,0.301,0.985,0.739l14.691,50.493
		c0.286,0.983,1.677,0.986,1.968,0.005l14.991-50.504c0.13-0.435,0.529-0.734,0.983-0.734h19.9c0.566,0,1.026,0.459,1.026,1.026
		v1.472c0,0.566-0.459,1.026-1.026,1.026h-0.485c-3.773,0-6.827,1.051-7.24,4.787c-0.209,1.632-0.323,3.704-0.323,6.214v45.168
		c0,3.771,0.193,6.26,0.587,7.488c0.807,2.288,3.13,3.431,6.975,3.431h0.485c0.566,0,1.026,0.459,1.026,1.026v1.536
		c0,0.566-0.459,1.026-1.026,1.026H235.67c-0.566,0-1.026-0.459-1.026-1.026v-2.562h0.911c2.798,0,4.769-0.553,5.933-1.683
		c0.769-0.727,1.215-1.753,1.352-3.109c0.229-1.583,0.329-3.625,0.329-6.127v-45.756c0-1.187-1.679-1.426-2.01-0.286l-17.398,59.811
		C223.632,292.71,223.231,293.011,222.775,293.011z"/>
	<path style="fill:#D6D6D8;" d="M285.474,240.214c6.943,0,12.567,2.739,16.887,8.21c3.774,4.801,5.656,11.084,5.656,18.886
		c0,7.899-1.883,14.266-5.656,19.081c-4.292,5.492-10.02,8.226-17.227,8.226c-6.781,0-12.33-2.734-16.603-8.226
		c-3.777-4.814-5.673-11.135-5.673-18.97c0-7.88,1.896-14.196,5.673-18.997C272.85,242.953,278.499,240.214,285.474,240.214z
		 M285.474,243.796c-9.977,0-11.767,13.107-11.767,23.084c0,8.188,1.01,14.399,3.047,18.602c1.818,3.701,4.716,5.555,8.72,5.555
		c7.807,0,11.714-7.948,11.714-23.849c0-7.318-0.856-12.897-2.561-16.701C292.954,246.775,289.722,243.796,285.474,243.796z"/>
	<path style="fill:#D6D6D8;" d="M327.047,245.255c0,0.994,1.246,1.386,1.856,0.601c0.543-0.701,1.139-1.313,1.781-1.838
		c2.747-2.226,5.93-3.333,9.56-3.333c5.357,0,9.758,1.896,13.207,5.705c4.455,4.97,6.694,11.649,6.694,20.072
		c0,8.015-2.007,14.731-5.983,20.123c-3.736,5.038-8.661,7.57-14.751,7.57c-3.293,0-6.318-0.891-9.071-2.682
		c-0.583-0.343-1.808-1.299-3.706-2.878c-0.713-0.567-1.356-0.858-1.888-0.858c-0.662,0-1.378,0.58-2.175,1.74
		c-0.645,0.894-1.323,1.91-2.046,3.052c-0.188,0.297-0.517,0.485-0.869,0.485h-1.711c-0.692,0-1.186-0.679-0.976-1.339
		c0.085-0.267,0.137-0.449,0.156-0.549c0.319-1.505,0.484-4.517,0.484-9.09v-50.933c0-4.003-0.441-6.527-1.359-7.504
		c-0.748-0.891-2.186-1.351-4.292-1.351h-0.83v-2.454c0-0.547,0.43-0.998,0.976-1.024l13.869-0.663
		c0.585-0.028,1.075,0.439,1.075,1.024v26.125H327.047z M338.753,244.636c-2.434,0-4.698,0.948-6.789,2.831
		c-3.919,3.582-5.86,10.057-5.86,19.44c0,7.237,0.907,12.818,2.766,16.765c0.989,2.107,2.388,3.774,4.236,4.992
		c1.511,1.019,3.228,1.524,5.16,1.524c7.353,0,11.022-7.832,11.022-23.511c0-7.159-0.913-12.697-2.772-16.614
		C344.782,246.452,342.194,244.636,338.753,244.636z"/>
	<path style="fill:#D6D6D8;" d="M378.93,241.086c0.584-0.028,1.074,0.439,1.074,1.024v38.456c0,4.087,0.446,6.651,1.356,7.672
		c0.757,0.899,2.199,1.359,4.287,1.359h0.777c0.566,0,1.026,0.459,1.026,1.026v1.364c0,0.566-0.459,1.026-1.026,1.026h-22.273
		c-0.566,0-1.026-0.459-1.026-1.026v-1.364c0-0.566,0.459-1.026,1.026-1.026h0.768c2.094,0,3.528-0.46,4.29-1.359
		c0.902-1.056,1.362-3.62,1.362-7.672v-26.423c0-4.02-0.46-6.543-1.362-7.551c-0.762-0.872-2.197-1.31-4.29-1.31h-1.258v-2.501
		c0-0.547,0.431-0.999,0.977-1.024L378.93,241.086z M374.503,218.246c1.621,0,3.025,0.597,4.171,1.783
		c1.199,1.192,1.786,2.631,1.786,4.298c0,1.661-0.567,3.093-1.723,4.292c-1.207,1.184-2.661,1.775-4.349,1.775
		c-1.699,0-3.129-0.591-4.292-1.775c-1.191-1.199-1.794-2.631-1.794-4.292c0-1.737,0.629-3.191,1.851-4.341
		C371.343,218.821,372.792,218.246,374.503,218.246z"/>
	<path style="fill:#D6D6D8;" d="M406.593,218.086c0.584-0.028,1.074,0.439,1.074,1.024v61.45c0,4.058,0.454,6.622,1.345,7.677
		c0.805,0.899,2.236,1.359,4.3,1.359h0.774c0.566,0,1.026,0.459,1.026,1.026v1.364c0,0.566-0.459,1.026-1.026,1.026h-22.288
		c-0.566,0-1.026-0.459-1.026-1.026v-1.364c0-0.566,0.459-1.026,1.026-1.026h0.774c2.113,0,3.545-0.46,4.3-1.359
		c0.913-1.056,1.351-3.62,1.351-7.677v-49.418c0-4.028-0.438-6.543-1.351-7.564c-0.757-0.902-2.189-1.367-4.3-1.367h-1.237v-2.431
		c0-0.547,0.431-0.999,0.977-1.024L406.593,218.086z"/>
	<path style="fill:#D6D6D8;" d="M457.736,267.08H429.4c-0.572,0-1.037,0.474-1.028,1.046c0.11,6.647,0.853,11.61,2.225,14.879
		c3.919,9.369,14.572,9.218,20.056,2.712c1.255-1.496,2.522-3.483,3.785-5.979c0.26-0.513,0.886-0.726,1.396-0.459l1.49,0.784
		c0.5,0.263,0.699,0.89,0.435,1.39c-4.639,8.775-10.803,13.163-18.484,13.163c-5.838,0-10.639-1.994-14.378-5.986
		c-4.641-4.957-6.964-12.145-6.964-21.545c0-8.626,2.323-15.547,6.964-20.731c3.674-4.09,8.072-6.14,13.234-6.14
		c13.399,0,19.904,12.236,20.632,25.787C458.795,266.586,458.321,267.08,457.736,267.08z M447.513,263.125
		c0.571,0,1.04-0.474,1.029-1.045c-0.136-7.584-2.248-17.914-9.846-17.914c-7.595,0-9.975,10.3-10.201,17.9
		c-0.017,0.576,0.454,1.058,1.03,1.058L447.513,263.125L447.513,263.125z"/>
	<path style="fill:#D6D6D8;" d="M23.034,266.054v-13.598c0-0.566,0.459-1.026,1.026-1.026h13.604c0.566,0,1.026,0.459,1.026,1.026
		v13.598c0,0.566-0.459,1.026-1.026,1.026H24.059C23.493,267.08,23.034,266.621,23.034,266.054z"/>
	<path style="fill:#D6D6D8;" d="M60.315,276.533c0,4.976,0.727,8.207,2.178,9.68c1.237,1.272,3.329,2.061,6.277,2.35
		c0.709,0.056,1.862,0.09,3.441,0.1c0.563,0.004,1.023,0.462,1.023,1.025v2.299c0,0.566-0.459,1.026-1.026,1.026H36.536
		c-0.566,0-1.026-0.459-1.026-1.026v-2.302c0-0.563,0.458-1.018,1.021-1.025c2.522-0.032,4.414-0.181,5.704-0.421
		c2.901-0.618,4.759-2.337,5.503-5.117c0.407-1.448,0.606-3.641,0.606-6.589v-55.772c0-0.586-0.495-1.066-1.08-1.029
		c-5.889,0.373-10.521,2.481-13.931,6.299c-3.298,3.716-5.347,9.291-6.192,16.757c-0.067,0.588-0.608,1.008-1.191,0.906
		l-2.126-0.372c-0.502-0.088-0.862-0.53-0.849-1.039l0.709-25.31c0.016-0.555,0.47-0.997,1.025-0.997h59.307
		c0.555,0,1.009,0.442,1.025,0.996l0.724,25.31c0.015,0.509-0.347,0.952-0.849,1.04l-2.139,0.373
		c-0.584,0.102-1.126-0.319-1.19-0.908c-0.831-7.465-2.898-13.039-6.184-16.755c-3.431-3.82-8.109-5.928-14.009-6.3
		c-0.585-0.037-1.08,0.443-1.08,1.029L60.315,276.533L60.315,276.533z"/>
	<path style="fill:#D6D6D8;" d="M70.278,266.054v-13.598c0-0.566,0.459-1.026,1.026-1.026h13.608c0.566,0,1.026,0.459,1.026,1.026
		v13.598c0,0.566-0.459,1.026-1.026,1.026H71.304C70.738,267.08,70.278,266.621,70.278,266.054z"/>
	<path style="fill:#D6D6D8;" d="M117.094,266.054v-13.598c0-0.566,0.459-1.026,1.026-1.026h13.584c0.566,0,1.026,0.459,1.026,1.026
		v13.598c0,0.566-0.459,1.026-1.026,1.026H118.12C117.552,267.08,117.094,266.621,117.094,266.054z"/>
	<path style="fill:#D6D6D8;" d="M163.851,266.054v-13.598c0-0.566,0.459-1.026,1.026-1.026h13.598c0.566,0,1.026,0.459,1.026,1.026
		v13.598c0,0.566-0.459,1.026-1.026,1.026h-13.598C164.31,267.08,163.851,266.621,163.851,266.054z"/>
	<path style="fill:#D6D6D8;" d="M471.799,266.054v-13.598c0-0.566,0.459-1.026,1.026-1.026h13.606c0.566,0,1.026,0.459,1.026,1.026
		v13.598c0,0.566-0.46,1.026-1.026,1.026h-13.606C472.259,267.08,471.799,266.621,471.799,266.054z"/>
</g>
<g>
</g>
<g>
</g>
<g>
</g>
<g>
</g>
<g>
</g>
<g>
</g>
<g>
</g>
<g>
</g>
<g>
</g>
<g>
</g>
<g>
</g>
<g>
</g>
<g>
</g>
<g>
</g>
<g>
</g>
</svg>
