<?xml version="1.0" encoding="iso-8859-1"?>
<!-- Generator: Adobe Illustrator 19.0.0, SVG Export Plug-In . SVG Version: 6.00 Build 0)  -->
<svg version="1.1" id="Capa_1" xmlns="http://www.w3.org/2000/svg" xmlns:xlink="http://www.w3.org/1999/xlink" x="0px" y="0px"
	 viewBox="0 0 511.999 511.999" style="enable-background:new 0 0 511.999 511.999;" xml:space="preserve">
<g>
	<path style="fill:#C2C2C4;" d="M103.848,222.444c-2.181,0.005-3.921-0.003-5.233,0.125H71.547c-3.846,0-6.976,3.244-6.976,7.23
		c0,3.984,3.129,7.225,6.976,7.225h21.015v5.965c0,3.205-11.361,5.357-16.902,5.357H39.35c-13.005,0-20.167-2.003-20.167-5.639
		v-35.385c0-6.921,30.376-5.454,34.577-5.454c4.783,0,7.418-2.426,7.418-6.831c0-4.38-2.634-6.793-7.418-6.793H39.277
		c-8.836,0-17.06,1.179-24.466,3.511C4.983,195.024,0,200.269,0,207.347v35.417c0,15.925,23.291,19.321,39.154,19.321h36.48
		c15.376,0,36.115-4.174,36.115-19.558v-13.984C111.75,223.846,108.412,222.444,103.848,222.444z"/>
	<path style="fill:#C2C2C4;" d="M186.594,202.988h-25.507c-15.117,0-36.857,4.344-36.857,19.416v20.48
		c0,15.106,21.932,18.949,37.005,18.949h25.358c15.331,0,35.374-3.707,35.374-18.949v-20.593
		C221.968,209.482,210.066,202.988,186.594,202.988z M203.424,221.452v21.432c0,4.275-12.595,5.468-17.274,5.468h-24.767
		c-4.892,0-18.759-0.807-18.759-5.468v-20.48c0-4.889,13.436-6.06,18.611-6.06h24.914
		C197.29,216.344,203.424,218.157,203.424,221.452z"/>
	<path style="fill:#C2C2C4;" d="M399.486,202.983c-11.808,0-20.248,0.801-25.782,2.443c-10.007,2.802-15.082,8.314-15.082,16.385
		v33.814c0,3.944,2.515,6.206,6.9,6.206c4.917,0,6.367-0.22,7.105-0.419c2.788-0.8,4.387-2.91,4.387-5.787v-33.814
		c0-6.432,16.566-5.348,21.432-5.348c7.293,0,8.382-3.887,8.382-6.204C406.826,205.569,404.22,202.985,399.486,202.983z"/>
	<path style="fill:#C2C2C4;" d="M451.119,202.988c-15.068,0-36.853,4.326-36.853,19.416v20.48c0,15.113,21.952,18.949,37.005,18.949
		h25.358c15.264,0,35.37-3.68,35.37-18.949v-20.593C511.999,199.274,475.233,202.988,451.119,202.988z M493.457,221.452v21.432
		c0,3.61-9.953,5.468-17.274,5.468h-24.774c-5.773,0-18.746-0.98-18.746-5.468v-20.48c0-4.889,13.434-6.06,18.608-6.06h24.915
		C487.323,216.344,493.457,218.157,493.457,221.452z"/>
	<path style="fill:#C2C2C4;" d="M332.833,190.618c-6.764-2.021-14.714-3.046-23.627-3.046h-67.178c-6.505,0-7.208,4.258-7.208,6.089
		v61.694c0,3.942,2.627,6.203,7.208,6.203c5.9,0,7.007-0.262,7.465-0.434c2.943-0.774,4.498-2.766,4.498-5.769v-19.167h54.473
		c9.984,0,18.213-1.116,25.206-3.428c9.454-3.472,14.248-9.135,14.248-16.831v-11.075
		C347.919,198.458,342.847,193.669,332.833,190.618z M309.353,222.589h-55.362v-21.413h55.362c17.997,0,19.395,3.544,19.395,4.631
		v9.649C328.748,221.351,318.201,222.589,309.353,222.589z"/>
</g>
<path style="fill:#579ADD;" d="M221.721,277.676h57.098c1.117,0,2.022,0.905,2.022,2.022v42.707c0,1.117-0.905,2.022-2.022,2.022
	h-57.098c-1.117,0-2.022-0.905-2.022-2.022v-42.707C219.699,278.581,220.604,277.676,221.721,277.676z"/>
<path style="fill:#0964AF;" d="M369.705,277.671H426.8c1.117,0,2.022,0.905,2.022,2.022v42.704c0,1.117-0.905,2.022-2.022,2.022
	h-57.095c-1.117,0-2.022-0.905-2.022-2.022v-42.704C367.683,278.576,368.588,277.671,369.705,277.671z"/>
<path style="fill:#D9ECF9;" d="M502.603,277.675h-57.1c-1.117,0-2.022,0.905-2.022,2.022v42.707c0,1.117,0.905,2.022,2.022,2.022
	h11.05c9.096,0,35.279,0,46.05,0c1.117,0,2.022-0.905,2.022-2.022v-42.707C504.625,278.581,503.719,277.675,502.603,277.675z"/>
<path style="fill:#579ADD;" d="M352.57,277.675h-11.05h-35h-11.05c-1.117,0-2.022,0.905-2.022,2.022v42.707
	c0,1.117,0.905,2.022,2.022,2.022h57.1c1.117,0,2.022-0.905,2.022-2.022v-42.707C354.592,278.581,353.687,277.675,352.57,277.675z"
	/>
<path style="fill:#4987CE;" d="M240.261,322.404v-42.707c0-1.117,0.905-2.022,2.022-2.022h-20.562c-1.117,0-2.022,0.905-2.022,2.022
	v42.707c0,1.117,0.905,2.022,2.022,2.022h20.562C241.166,324.427,240.261,323.521,240.261,322.404z"/>
<path style="fill:#004F9C;" d="M388.245,322.397v-42.705c0-1.117,0.905-2.022,2.022-2.022h-20.563c-1.117,0-2.022,0.905-2.022,2.022
	v42.705c0,1.117,0.905,2.022,2.022,2.022h20.563C389.15,324.419,388.245,323.514,388.245,322.397z"/>
<path style="fill:#BDDBF4;" d="M464.043,322.404v-42.707c0-1.117,0.905-2.022,2.022-2.022h-20.562c-1.117,0-2.022,0.905-2.022,2.022
	v42.707c0,1.117,0.905,2.022,2.022,2.022h11.05h9.512C464.948,324.426,464.043,323.521,464.043,322.404z"/>
<path style="fill:#4987CE;" d="M314.01,322.404v-42.707c0-1.117,0.905-2.022,2.022-2.022h-9.512h-11.05
	c-1.117,0-2.022,0.905-2.022,2.022v42.707c0,1.117,0.905,2.022,2.022,2.022h20.562C314.915,324.426,314.01,323.521,314.01,322.404z"
	/>
<g>
</g>
<g>
</g>
<g>
</g>
<g>
</g>
<g>
</g>
<g>
</g>
<g>
</g>
<g>
</g>
<g>
</g>
<g>
</g>
<g>
</g>
<g>
</g>
<g>
</g>
<g>
</g>
<g>
</g>
</svg>
