<svg height="383pt" viewBox="0 0 383 383.822" width="383pt" xmlns="http://www.w3.org/2000/svg"><path d="m56.554688 56.140625c-74.859376 74.855469-74.859376 196.671875 0 271.53125 37.429687 37.429687 86.597656 56.148437 135.765624 56.148437 49.167969 0 98.335938-18.71875 135.769532-56.148437 74.855468-74.859375 74.855468-196.675781 0-271.53125-74.855469-74.855469-196.671875-74.855469-271.535156 0zm22.621093 22.625c31.191407-31.191406 72.167969-46.792969 113.144531-46.792969 35.960938 0 71.90625 12.023438 101.257813 36.050782l-27.714844 27.710937-22.621093 22.625-30.25 30.246094c-6.382813-3.03125-13.390626-4.695313-20.671876-4.695313-12.824218 0-24.871093 4.992188-33.933593 14.054688-9.074219 9.074218-14.066407 21.121094-14.066407 33.945312 0 7.28125 1.664063 14.289063 4.710938 20.664063l-29.167969 29.167969c-23.582031-34.265626-20.214843-81.617188 10.234375-112.054688l11.3125-11.3125-22.625-22.625-11.3125 11.3125c-22.664062 22.664062-35.152344 52.792969-35.152344 84.847656 0 26.648438 8.746094 51.894532 24.671876 72.703125l-28.550782 28.550781c-51.390625-62.78125-47.824218-155.828124 10.734375-214.398437zm101.832031 124.449219c-3.023437-3.015625-4.6875-7.03125-4.6875-11.304688 0-4.273437 1.664063-8.289062 4.695313-11.3125 3.015625-3.023437 7.035156-4.6875 11.304687-4.6875 4.273438 0 8.289063 1.664063 11.3125 4.695313 3.023438 3.015625 4.6875 7.03125 4.6875 11.304687 0 4.273438-1.664062 8.289063-4.6875 11.304688l-.007812.007812c-6.03125 6.046875-16.566406 6.054688-22.617188-.007812zm124.457032 101.839844c-58.574219 58.574218-151.609375 62.144531-214.390625 10.734374l80.582031-80.582031c6.375 3.039063 13.382812 4.703125 20.664062 4.703125 12.824219 0 24.871094-4.992187 33.9375-14.054687 0-.007813 0-.007813 0-.007813h.007813c9.0625-9.066406 14.054687-21.113281 14.054687-33.9375 0-7.28125-1.664062-14.289062-4.710937-20.664062l29.167969-29.167969c23.582031 34.265625 20.214844 81.617187-10.230469 112.0625l-11.3125 11.3125 22.621094 22.625 11.3125-11.3125c22.664062-22.671875 35.152343-52.800781 35.152343-84.855469 0-26.648437-8.742187-51.894531-24.671874-72.703125l28.550781-28.554687c51.394531 62.785156 47.824219 155.832031-10.734375 214.402344zm0 0"/></svg>