<svg height="384pt" viewBox="0 0 384 384" width="384pt" xmlns="http://www.w3.org/2000/svg"><path d="m192 64c-70.574219 0-128 57.425781-128 128s57.425781 128 128 128 128-57.425781 128-128-57.425781-128-128-128zm83.007812 80h-99.007812v-46.550781c5.214844-.882813 10.535156-1.449219 16-1.449219 35.441406 0 66.375 19.351562 83.007812 48zm-99.007812 48c0-8.824219 7.175781-16 16-16s16 7.175781 16 16-7.175781 16-16 16-16-7.175781-16-16zm-32-83.007812v99.007812h-46.550781c-.882813-5.214844-1.449219-10.535156-1.449219-16 0-35.441406 19.351562-66.375 48-83.007812zm-35.007812 131.007812h99.007812v46.550781c-5.214844.882813-10.535156 1.449219-16 1.449219-35.441406 0-66.375-19.351562-83.007812-48zm131.007812 35.007812v-99.007812h46.550781c.882813 5.214844 1.449219 10.535156 1.449219 16 0 35.441406-19.351562 66.375-48 83.007812zm0 0"/><path d="m0 384h384v-384h-384zm32-352h320v320h-320zm0 0"/></svg>