<?xml version="1.0" encoding="iso-8859-1"?>
<!-- Generator: Adobe Illustrator 19.0.0, SVG Export Plug-In . SVG Version: 6.00 Build 0)  -->
<svg version="1.1" id="Capa_1" xmlns="http://www.w3.org/2000/svg" xmlns:xlink="http://www.w3.org/1999/xlink" x="0px" y="0px"
	 viewBox="0 0 512 512" style="enable-background:new 0 0 512 512;" xml:space="preserve">
<g>
	<path style="fill:#0964AF;" d="M510.211,1.523h-3.518c-22.299,0-484.093,0-500.731,0H1.789C0.801,1.523,0,2.324,0,3.313v505.365
		c0,1.542,1.832,2.377,2.973,1.34c35.982-32.69,135.666-56.195,253.027-56.195s217.045,23.505,253.027,56.194
		c1.141,1.037,2.973,0.201,2.973-1.34c0-5.579,0-492.395,0-505.364C512,2.324,511.199,1.523,510.211,1.523z"/>
	<path style="fill:#004F9C;" d="M20.862,3.313c0-0.988,0.801-1.789,1.789-1.789c-9.096,0-15.096,0-16.69,0H1.789
		C0.801,1.523,0,2.324,0,3.313v505.365c0,1.542,1.832,2.377,2.973,1.34c4.843-4.4,10.85-8.632,17.889-12.664V3.313z"/>
</g>
<g>
	<path style="fill:#F2F2F2;" d="M89.424,203.179c15.919-14.33,23.304-33.399,23.487-51.271c0.007-0.687-0.262-1.349-0.746-1.838
		c-0.483-0.489-1.143-0.764-1.83-0.764H24.544c-1.423,0-2.576,1.153-2.576,2.576v28.851c0,1.423,1.153,2.576,2.576,2.576h11.251
		c1.422,0,2.574-1.151,2.576-2.573c0.005-4.027,0.769-11.489,5.819-16.196l1.19-0.936c4.516-3.109,14.135-4.984,26.354-5.145h1.893
		c0.174,0,0.339,0.075,0.452,0.205c0.11,0.127,0.159,0.295,0.135,0.462c-2.326,16.139-29.067,44.785-34.45,52.125
		c-14.907,20.438-18.584,37.81-19.472,44.33c-0.1,0.737,0.123,1.482,0.612,2.042c0.49,0.559,1.197,0.881,1.941,0.881h85.478
		c1.423,0,2.576-1.153,2.576-2.576V227.08c0-1.423-1.153-2.576-2.576-2.576h-4.836c-1.038,0-1.976,0.624-2.376,1.583
		c-9.979,23.879-29.585,22.308-35.362,21.257l-2.587-0.608C63.131,246.565,60.456,229.25,89.424,203.179z"/>
	<path style="fill:#F2F2F2;" d="M372.659,211.161c-9.37-11.714-32.263-37.28-34.382-52.039c-0.024-0.164,0.025-0.33,0.135-0.457
		c0.113-0.13,0.278-0.205,0.453-0.205h1.825c12.275,0.162,21.906,2.037,26.421,5.145l1.19,0.935c5.05,4.708,5.814,12.17,5.82,16.198
		c0.002,1.421,1.155,2.572,2.576,2.572h11.25c1.423,0,2.576-1.153,2.576-2.576v-28.851c0-1.423-1.153-2.576-2.576-2.576
		l-85.791-0.001c-0.688,0-1.347,0.275-1.831,0.764c-0.483,0.489-0.752,1.151-0.745,1.839c0.184,17.586,7.364,36.758,23.486,51.271
		c28.969,26.071,26.293,43.386,26.263,43.556l-2.587,0.609c-5.769,1.052-25.379,2.627-35.362-21.256
		c-0.4-0.959-1.338-1.583-2.376-1.583h-4.835c-1.423,0-2.576,1.153-2.576,2.576v28.848c0,1.423,1.153,2.576,2.576,2.576h85.478
		c0.744,0,1.451-0.322,1.941-0.881c0.489-0.56,0.711-1.305,0.612-2.042C390.088,240.104,380.708,221.221,372.659,211.161z"/>
	<path style="fill:#F2F2F2;" d="M285.526,149.307h-54.353c-1.423,0-2.576,1.153-2.576,2.576v4.001c0,1.423,1.153,2.576,2.576,2.576
		h2c3.967,0,7.195,3.228,7.195,7.195v76.504c0,3.967-3.228,7.195-7.223,7.195l-2,0.022c-1.412,0.016-2.547,1.164-2.547,2.576v3.979
		c0,1.423,1.153,2.576,2.576,2.576h54.353c1.423,0,2.576-1.153,2.576-2.576v-4.001c0-1.423-1.153-2.576-2.576-2.576h-2.001
		c-3.967,0-7.195-3.228-7.195-7.195v-76.504c0-3.967,3.228-7.195,7.223-7.195l2.001-0.022c1.412-0.016,2.547-1.164,2.547-2.576
		v-3.979C288.101,150.46,286.948,149.307,285.526,149.307z"/>
	<path style="fill:#F2F2F2;" d="M214.908,149.307h-90.32c-1.423,0-2.576,1.153-2.576,2.575l-0.001,4.001
		c0,1.3,0.964,2.577,2.776,2.577c4.96,0,8.996,4.035,8.996,8.996v72.741c0,5.048-4.107,9.154-9.195,9.154
		c-1.423,0-2.576,1.153-2.576,2.575l-0.001,4.003c0,0.683,0.271,1.339,0.755,1.822c0.483,0.483,1.138,0.755,1.821,0.755h90.321
		c1.423,0,2.576-1.153,2.576-2.576v-31.465c0-1.423-1.153-2.576-2.576-2.576h-5.965c-1.423,0-2.576,1.153-2.576,2.576v2.621
		c0,12.186-9.913,22.165-22.098,22.247l-14.519,0.018v-41.192h4.573c5.049,0,9.157,4.107,9.157,9.156v1.999
		c0,1.423,1.153,2.576,2.576,2.576h5.966c1.423,0,2.576-1.153,2.576-2.576v-31.468c0-0.686-0.274-1.344-0.761-1.827
		c-0.487-0.485-1.177-0.761-1.833-0.749l-5.966,0.041c-1.388,0.01-2.519,1.118-2.557,2.506c-0.14,5.172-4.273,9.224-9.408,9.224
		h-4.322v-38.582h16.16c9.838,0,17.841,8.004,17.841,17.84v4.434c0,1.423,1.153,2.576,2.576,2.576h8.581
		c1.423,0,2.576-1.153,2.576-2.576v-28.851C217.483,150.46,216.33,149.307,214.908,149.307z"/>
</g>
<g>
	<path style="fill:#D6D6D8;" d="M24.544,183.309h11.251c1.422,0,2.574-1.151,2.576-2.573c0.004-3.55,0.603-9.766,4.202-14.414
		v-14.44c0-1.423,1.153-2.576,2.576-2.576H24.544c-1.423,0-2.576,1.153-2.576,2.576v28.851
		C21.968,182.156,23.121,183.309,24.544,183.309z"/>
	<path style="fill:#D6D6D8;" d="M110.898,227.081c0-1.423-1.153-2.576-2.576-2.576h-4.836c-1.038,0-1.976,0.624-2.376,1.583
		c-4.548,10.882-11.094,16.469-17.42,19.238c-0.003,0.896,0.071,1.384,0.076,1.411l2.587,0.608
		c4.063,0.739,14.962,1.722,24.546-6.056L110.898,227.081L110.898,227.081z"/>
	<path style="fill:#D6D6D8;" d="M40.897,255.581c2.109-15.477,11.493-34.36,19.541-44.42c9.321-11.656,32.251-37.257,34.38-52.034
		c0.024-0.167-0.025-0.335-0.135-0.462c-0.113-0.13-0.278-0.205-0.452-0.205c-4.957-0.508-15.72-1.19-20.605,0
		c0.174,0,0.339,0.075,0.452,0.205c0.11,0.127,0.159,0.295,0.135,0.462c-2.326,16.139-29.067,44.785-34.45,52.125
		c-14.907,20.438-18.584,37.81-19.472,44.33c-0.1,0.737,0.123,1.482,0.612,2.042c0.49,0.559,1.197,0.881,1.941,0.881h20.605
		c-0.744,0-1.451-0.322-1.941-0.881C41.02,257.063,40.797,256.318,40.897,255.581z"/>
	<path style="fill:#D6D6D8;" d="M322.198,255.929v-14.64c-4.044-3.283-7.855-8.114-10.818-15.201
		c-0.4-0.959-1.338-1.583-2.376-1.583h-4.835c-1.423,0-2.576,1.153-2.576,2.576v28.848c0,1.423,1.153,2.576,2.576,2.576h20.605
		C323.351,258.505,322.198,257.352,322.198,255.929z"/>
	<path style="fill:#D6D6D8;" d="M325.365,205.297c26.516,24.885,23.994,41.273,23.965,41.438c7.558,3.309,14.878,1.182,18.018,0.609
		l2.587-0.609c0.03-0.17,2.705-17.485-26.263-43.556c-15.888-14.301-23.299-33.352-23.486-51.271
		c-0.007-0.688,0.262-1.35,0.745-1.839c0.483-0.488,1.141-0.763,1.829-0.763h-20.603c-0.688,0-1.347,0.275-1.831,0.764
		c-0.483,0.489-0.752,1.151-0.745,1.839c0.06,5.777,1.211,20.862,10.587,36.122C315.59,196.858,322.298,202.406,325.365,205.297z"/>
	<path style="fill:#D6D6D8;" d="M249.203,255.929v-3.979c0-1.412,1.136-2.56,2.547-2.576l2-0.022c3.995,0,7.223-3.228,7.223-7.195
		v-76.504c0-3.967-3.228-7.195-7.195-7.195h-2c-1.423,0-2.576-1.153-2.576-2.576v-4.001c0-1.423,1.153-2.576,2.576-2.576h-20.605
		c-1.423,0-2.576,1.153-2.576,2.576v4.001c0,1.423,1.153,2.576,2.576,2.576h2c3.967,0,7.195,3.228,7.195,7.195v76.504
		c0,3.967-3.228,7.195-7.223,7.195l-2,0.022c-1.412,0.016-2.547,1.164-2.547,2.576v3.979c0,1.423,1.153,2.576,2.576,2.576h20.605
		C250.356,258.505,249.203,257.352,249.203,255.929z"/>
	<path style="fill:#D6D6D8;" d="M190.355,158.459v0.583c7.69,1.983,13.396,8.957,13.396,17.257v4.434
		c0,1.423,1.153,2.576,2.576,2.576h8.581c1.423,0,2.576-1.153,2.576-2.576v-18.475c-3.029-2.372-6.832-3.8-10.968-3.8h-16.161
		V158.459z"/>
	<path style="fill:#D6D6D8;" d="M142.616,255.928l0.001-4.003c0-1.422,1.153-2.575,2.576-2.575c5.088,0,9.195-4.107,9.195-9.154
		v-72.741c0-4.96-4.035-8.996-8.996-8.996h-0.2c-1.416,0-2.576-1.148-2.576-2.577l0.001-4.001c0-1.422,1.153-2.575,2.576-2.575
		h-20.605c-1.423,0-2.576,1.153-2.576,2.575l-0.001,4.001c0,1.3,0.964,2.577,2.776,2.577c4.96,0,8.996,4.035,8.996,8.996v72.741
		c0,5.048-4.107,9.154-9.195,9.154c-1.423,0-2.576,1.153-2.576,2.575l-0.001,4.003c0,0.683,0.271,1.339,0.755,1.822
		c0.483,0.483,1.138,0.755,1.821,0.755h20.605c-0.683,0-1.338-0.272-1.821-0.755C142.887,257.267,142.616,256.611,142.616,255.928z"
		/>
	<path style="fill:#D6D6D8;" d="M217.483,224.464c0-1.423-1.153-2.576-2.576-2.576h-2.282h-3.683c-1.423,0-2.576,1.153-2.576,2.576
		v2.621c0,10.073-6.781,18.621-16.012,21.334v0.931l14.519-0.018c4.687-0.031,9.03-1.538,12.609-4.06v-20.808H217.483z"/>
	<path style="fill:#D6D6D8;" d="M359.145,160.443c3.396,0.826,6.116,1.888,7.966,3.162l1.19,0.935
		c5.05,4.708,5.814,12.17,5.82,16.198c0.002,1.421,1.155,2.572,2.576,2.572h11.25c1.423,0,2.576-1.153,2.576-2.576v-14.412
		C381.237,159.808,359.145,160.443,359.145,160.443z"/>
</g>
<path style="fill:#F2F2F2;" d="M472.376,211.161c-10.179-12.726-32.263-37.282-34.382-52.039c-0.024-0.164,0.025-0.33,0.135-0.457
	c0.113-0.13,0.278-0.205,0.453-0.205h1.825c12.275,0.162,21.906,2.037,26.421,5.145l1.19,0.935c5.05,4.708,5.814,12.17,5.82,16.198
	c0.002,1.421,1.155,2.572,2.576,2.572h11.25c1.423,0,2.576-1.153,2.576-2.576v-28.851c0-1.423-1.153-2.576-2.576-2.576
	l-85.791-0.001c-0.688,0-1.347,0.275-1.831,0.764c-0.483,0.489-0.752,1.151-0.745,1.839c0.184,17.586,7.364,36.758,23.486,51.271
	c28.969,26.071,26.293,43.386,26.263,43.556l-2.587,0.609c-5.769,1.052-25.379,2.627-35.362-21.256
	c-0.4-0.959-1.338-1.583-2.376-1.583h-4.835c-1.423,0-2.576,1.153-2.576,2.576v28.848c0,1.423,1.153,2.576,2.576,2.576h85.478
	c0.743,0,1.451-0.322,1.941-0.881c0.489-0.56,0.711-1.305,0.612-2.042C489.805,240.104,480.424,221.221,472.376,211.161z"/>
<g>
	<path style="fill:#D6D6D8;" d="M421.915,255.929v-14.64c-4.044-3.283-7.855-8.114-10.818-15.201
		c-0.4-0.959-1.338-1.583-2.376-1.583h-4.835c-1.423,0-2.576,1.153-2.576,2.576v28.848c0,1.423,1.153,2.576,2.576,2.576h20.605
		C423.068,258.505,421.915,257.352,421.915,255.929z"/>
	<path style="fill:#D6D6D8;" d="M425.081,205.297c26.516,24.885,23.994,41.273,23.965,41.438c7.558,3.309,14.878,1.182,18.018,0.609
		l2.587-0.609c0.03-0.17,2.705-17.485-26.263-43.556c-15.888-14.301-23.299-33.352-23.486-51.271
		c-0.007-0.688,0.262-1.35,0.745-1.839c0.483-0.488,1.141-0.763,1.829-0.763h-20.603c-0.688,0-1.347,0.275-1.831,0.764
		c-0.483,0.489-0.752,1.151-0.745,1.839c0.06,5.777,1.211,20.862,10.587,36.122C415.307,196.858,422.014,202.406,425.081,205.297z"
		/>
	<path style="fill:#D6D6D8;" d="M458.861,160.443c3.396,0.826,6.116,1.888,7.966,3.162l1.19,0.935
		c5.05,4.708,5.814,12.17,5.82,16.198c0.002,1.421,1.155,2.572,2.576,2.572h11.25c1.423,0,2.576-1.153,2.576-2.576v-14.412
		C480.953,159.808,458.861,160.443,458.861,160.443z"/>
</g>
<g>
</g>
<g>
</g>
<g>
</g>
<g>
</g>
<g>
</g>
<g>
</g>
<g>
</g>
<g>
</g>
<g>
</g>
<g>
</g>
<g>
</g>
<g>
</g>
<g>
</g>
<g>
</g>
<g>
</g>
</svg>
