<?xml version="1.0" encoding="iso-8859-1"?>
<!-- Generator: Adobe Illustrator 19.0.0, SVG Export Plug-In . SVG Version: 6.00 Build 0)  -->
<svg version="1.1" id="Capa_1" xmlns="http://www.w3.org/2000/svg" xmlns:xlink="http://www.w3.org/1999/xlink" x="0px" y="0px"
	 viewBox="0 0 512 512" style="enable-background:new 0 0 512 512;" xml:space="preserve">
<g>
	<path style="fill:#E85454;" d="M251.005,332.729c46.41,2.933,84.669-35.338,81.721-81.751c-2.43-38.267-33.495-69.308-71.764-71.71
		c-46.396-2.912-84.623,35.335-81.691,81.727C181.691,299.261,212.739,330.311,251.005,332.729z"/>
	<path style="fill:#E85454;" d="M269.965,0.376c-28.649-1.541-56.306,1.701-82.321,8.891c-3.653,1.01-6.214,4.289-6.214,8.079
		v118.204c0,4.147,4.462,6.776,8.073,4.737c22.261-12.57,48.477-18.972,76.332-16.741c66.537,5.329,119.339,60.097,122.35,126.78
		c3.544,78.449-60.705,142.827-139.141,139.461c-70.188-3.012-127.524-64.754-127.524-135.006c0-4.699,0-210.207,0-207.745
		c0-3.857-4.31-6.171-7.517-4.029C44.495,89.428-1.016,168.933,0.029,259.035c1.578,136.079,110.865,248.093,246.872,252.807
		c147.705,5.12,268.654-114.951,265.007-262.334C508.619,116.589,402.732,7.517,269.965,0.376z"/>
	<path style="fill:#E85454;" d="M251.005,332.729c46.41,2.933,84.669-35.338,81.721-81.751c-2.43-38.267-33.495-69.308-71.764-71.71
		c-46.396-2.912-84.623,35.335-81.691,81.727C181.691,299.261,212.739,330.311,251.005,332.729z"/>
</g>
<g>
	<path style="fill:#D84848;" d="M199.877,260.995c-2.603-41.167,27.208-75.917,66.375-81.188c-1.748-0.234-3.508-0.428-5.289-0.54
		c-46.396-2.912-84.624,35.335-81.691,81.727c2.419,38.265,33.467,69.315,71.734,71.734c5.236,0.331,10.367,0.133,15.347-0.538
		C230.539,327.401,202.184,297.491,199.877,260.995z"/>
	<path style="fill:#D84848;" d="M265.229,389.506c1.468,0.115,2.94,0.215,4.42,0.278c78.435,3.366,142.686-61.011,139.141-139.461
		c-3.013-66.682-55.813-121.452-122.35-126.78c-7.185-0.575-14.256-0.566-21.183-0.035c0.193,0.015,0.385,0.02,0.578,0.035
		c66.537,5.329,119.339,60.097,122.35,126.78C391.481,323.3,336.11,384.089,265.229,389.506z"/>
	<path style="fill:#D84848;" d="M189.503,140.285c4.05-2.287,8.235-4.364,12.531-6.227V5.736c-4.849,1.043-9.648,2.22-14.39,3.531
		c-3.654,1.01-6.215,4.289-6.215,8.079v118.204C181.429,139.696,185.892,142.324,189.503,140.285z"/>
	<path style="fill:#D84848;" d="M20.634,259.035C19.656,174.721,59.447,99.687,121.52,52.356c0-3.273,0-5.148,0-5.322
		c0-3.857-4.31-6.171-7.517-4.029C44.495,89.428-1.016,168.933,0.029,259.035c1.578,136.079,110.865,248.093,246.872,252.807
		c6.516,0.226,12.975,0.195,19.378-0.058C130.844,506.439,22.207,394.703,20.634,259.035z"/>
</g>
<g>
</g>
<g>
</g>
<g>
</g>
<g>
</g>
<g>
</g>
<g>
</g>
<g>
</g>
<g>
</g>
<g>
</g>
<g>
</g>
<g>
</g>
<g>
</g>
<g>
</g>
<g>
</g>
<g>
</g>
</svg>
