<svg height="384pt" viewBox="0 0 384 384" width="384pt" xmlns="http://www.w3.org/2000/svg"><path d="m48 384h80v-144h-48v-32c0-26.976562 9.71875-53.03125 27.359375-73.351562l10.488281-12.089844-24.167968-20.972656-10.488282 12.078124c-22.6875 26.152344-35.191406 59.648438-35.191406 94.335938v32c-26.472656 0-48 21.527344-48 48v48c0 26.472656 21.527344 48 48 48zm-16-96c0-8.824219 7.175781-16 16-16h48v80h-48c-8.824219 0-16-7.175781-16-16zm0 0"/><path d="m336 240v-32c0-34.6875-12.503906-68.191406-35.199219-94.335938l-10.488281-12.078124-24.167969 20.972656 10.496094 12.089844c17.640625 20.320312 27.359375 46.367187 27.359375 73.351562v32h-48v144h80c26.472656 0 48-21.527344 48-48v-48c0-26.472656-21.527344-48-48-48zm16 96c0 8.824219-7.175781 16-16 16h-48v-80h48c8.824219 0 16 7.175781 16 16zm0 0"/><path d="m208 0v64h-16c-26.472656 0-48 21.527344-48 48s21.527344 48 48 48h48v-98.800781c5.015625 1.785156 10.382812 2.800781 16 2.800781h32v-32h-32c-8.824219 0-16-7.175781-16-16v-16zm0 128h-16c-8.824219 0-16-7.175781-16-16s7.175781-16 16-16h16zm0 0"/></svg>