<svg height="384pt" viewBox="0 -16 384 384" width="384pt" xmlns="http://www.w3.org/2000/svg"><path d="m264 128h-144v-16c0-8.824219 7.175781-16 16-16h168c26.472656 0 48-21.527344 48-48s-21.527344-48-48-48h-304v32h304c8.824219 0 16 7.175781 16 16s-7.175781 16-16 16h-168c-26.472656 0-48 21.527344-48 48v16h-88v224h384v-224zm0 32v32h-56v-32zm-56 64h56v32h-56zm-32 32h-56v-32h56zm0-96v32h-56v-32zm-144 0h56v32h-56zm0 64h56v32h-56zm0 96v-32h56v32zm88 0v-32h144v32zm232 0h-56v-32h56zm0-64h-56v-32h56zm0-96v32h-56v-32zm0 0"/></svg>