<svg height="384pt" viewBox="-64 0 384 384" width="384pt" xmlns="http://www.w3.org/2000/svg"><path d="m256 160v-32c0-70.574219-57.425781-128-128-128s-128 57.425781-128 128v128c0 70.574219 57.425781 128 128 128s128-57.425781 128-128zm-128-128c52.9375 0 96 43.0625 96 96h-48v-16c0-26.472656-21.527344-48-48-48s-48 21.527344-48 48v16h-48c0-52.9375 43.0625-96 96-96zm16 128v16c0 8.824219-7.175781 16-16 16s-16-7.175781-16-16v-64c0-8.824219 7.175781-16 16-16s16 7.175781 16 16zm-16 192c-52.9375 0-96-43.0625-96-96v-96h48v16c0 26.472656 21.527344 48 48 48s48-21.527344 48-48v-16h48v96c0 52.9375-43.0625 96-96 96zm0 0"/></svg>