<svg height="384pt" viewBox="0 0 384 384" width="384pt" xmlns="http://www.w3.org/2000/svg"><path d="m0 96v160h176v34.800781c-13.601562 4.832031-24.367188 15.597657-29.199219 29.199219h-82.800781v32h82.800781c6.605469 18.617188 24.34375 32 45.199219 32s38.59375-13.382812 45.199219-32h82.800781v-32h-82.800781c-4.832031-13.601562-15.597657-24.367188-29.199219-29.199219v-34.800781h176v-256h-384zm192 256c-8.824219 0-16-7.175781-16-16s7.175781-16 16-16 16 7.175781 16 16-7.175781 16-16 16zm-160-224h64v32h-64zm96 0h128v32h-128zm-96 96v-32h64v32zm176 0h-80v-32h128v32zm144 0h-64v-32h64zm0-64h-64v-32h64zm-320-128h320v64h-320zm0 0"/></svg>