<svg height="384pt" viewBox="0 -45 384 384" width="384pt" xmlns="http://www.w3.org/2000/svg"><path d="m208 86.601562h-32v96h-176v112h384v-112h-176zm144 128v48h-320v-48zm0 0"/><path d="m272 126.601562v-16c0-21.378906-8.320312-41.464843-23.433594-56.570312l-11.308594-11.3125-22.625 22.625 11.3125 11.3125c9.0625 9.0625 14.054688 21.113281 14.054688 33.945312v16zm0 0"/><path d="m112 110.59375v16h32v-16c0-12.824219 4.992188-24.875 14.054688-33.9375l11.3125-11.3125-22.625-22.625-11.308594 11.3125c-15.113282 15.105469-23.433594 35.191406-23.433594 56.5625zm0 0"/><path d="m48 126.585938h32v-16c0-28.777344 10.878906-56.105469 30.640625-76.96875l11-11.617188-23.234375-22-11 11.617188c-25.414062 26.824218-39.40625 61.976562-39.40625 98.96875zm0 0"/><path d="m336 126.601562v-16c0-37-13.992188-72.160156-39.40625-98.984374l-11-11.617188-23.234375 22 11 11.617188c19.761719 20.863281 30.640625 48.199218 30.640625 76.984374v16zm0 0"/></svg>