<?xml version="1.0" encoding="iso-8859-1"?>
<!-- Generator: Adobe Illustrator 19.0.0, SVG Export Plug-In . SVG Version: 6.00 Build 0)  -->
<svg version="1.1" id="Capa_1" xmlns="http://www.w3.org/2000/svg" xmlns:xlink="http://www.w3.org/1999/xlink" x="0px" y="0px"
	 viewBox="0 0 512.006 512.006" style="enable-background:new 0 0 512.006 512.006;" xml:space="preserve">
<g>
	<path style="fill:#C2C2C4;" d="M462.991,253.945c-0.31,1.701-0.689,0.884-0.958,0.054c-5.806-19.181-24.266-33.206-46.141-33.206
		c-21.795,0-40.214,13.936-46.074,33.03c-0.27,1.005-1.08,0.749-1.094,0c-0.472-20.37-16.19-33.793-36.689-33.672
		c-10.371,0.068-18.809,4.065-21.943,8.434c-0.256,0.384-0.878,0.506-0.878-0.379l0,0v-28.492c0-0.459-0.372-0.831-0.831-0.831
		h-20.537c-0.459,0-0.831,0.372-0.831,0.831v67.883l0,0c0,10.324-6.307,24.676-21.174,24.676c-13.625,0-20.186-7.805-20.186-23.158
		l0,0V242c0-0.459,0.372-0.831,0.831-0.831h33.15c0.459,0,0.831-0.372,0.831-0.831V220.86c0-0.459-0.372-0.831-0.831-0.831h-33.15
		c-0.459,0-0.831-0.372-0.831-0.831v-19.485c0-0.459-0.372-0.831-0.831-0.831h-20.525c-0.459,0-0.831,0.372-0.831,0.831v54.17l0,0
		c0,1.323-0.824,1.323-1.311,0.054c-5.739-19.242-24.09-33.367-45.6-33.367c-14.436,0-26.953,6.029-35.771,15.994
		c-0.365,0.325-0.622,0.014-0.555-0.431l0,0v-9.489v-4.752c0-1.026-0.839-1.865-1.864-1.845
		c-35.781,0.69-43.931,21.269-45.883,34.146c-0.176,1.074-1.242,1.014-1.471-0.066c-5.537-19.371-23.415-33.557-44.602-33.557
		c-8.309,0-16.096,3.275-22.852,9.075c-0.533,0.458-1.359,0.063-1.359-0.64v-29.297c0-0.456-0.369-0.825-0.825-0.825H8.424H2.528
		c-1.397,0-2.529,1.133-2.528,2.53l0.04,65.434l0,0c0.066,25.561,20.767,46.276,46.37,46.276c21.456,0,39.525-14.557,44.804-34.313
		c0.216-0.581,0.595-0.513,0.595-0.014l0,0v31.012c0,0.459,0.372,0.831,0.831,0.831h20.537c0.459,0,0.831-0.372,0.831-0.831v-42.712
		l0,0c0-21.78,12.722-25.292,22.322-25.831c0.621-0.035,0.649,0.256,0.419,0.588c-4.74,7.204-7.495,15.785-7.495,24.995
		c0,25.561,21.172,46.276,47.302,46.276c21.47,0,39.727-14.016,45.506-33.192c0.324-1.702,1.351-1.702,1.499,0
		c1.148,14.34,12.167,32.733,40.254,32.733c9.385,0,18.136-5.213,21.484-9.035c0.838-0.796,1.716-0.796,1.716,0.716l0,0v5.463
		c0,0.459,0.372,0.831,0.831,0.831h20.537c0.459,0,0.831-0.372,0.831-0.831v-48.626l0,0c0.501-9.31,5.293-21.139,18.284-21.139
		c16.272,0,19.04,10.695,19.04,14.719l0,0v55.046c0,0.459,0.372,0.831,0.831,0.831h20.537c0.459,0,0.831-0.372,0.831-0.831v-29.809
		l0,0c0-0.878,0.946-0.756,1.054-0.257c5.82,19.16,24.252,33.164,46.101,33.164c21.113,0,38.119-11.974,42.673-30.921
		c0.231-0.961-0.483-1.892-1.471-1.892h-0.521l-16.293-0.025l0,0c-0.96-0.001-1.85,0.523-2.294,1.374
		c-4.449,8.522-12.68,14.234-22.093,14.234c-11.802,0-21.741-9.048-24.699-21.28l0,0h23.186h46.849c0.459,0,0.831,0.372,0.831,0.831
		v34.582c0,0.459,0.372,0.831,0.831,0.831h20.525c0.459,0,0.831-0.372,0.831-0.831v-42.712l0,0c0-24.92,18.162-26.43,27.737-26.43
		v-1.415v-16.379c0-1.433,0.238-2.85-1.032-2.837C474.686,220.418,465.453,240.948,462.991,253.945L462.991,253.945L462.991,253.945
		L462.991,253.945z M45.141,292.922c-14.382,0-26.035-11.64-26.035-25.987c0-14.355,11.653-25.987,26.035-25.987
		c14.38,0,26.048,11.633,26.048,25.987C71.189,281.282,59.522,292.922,45.141,292.922L45.141,292.922L45.141,292.922L45.141,292.922
		z M176.07,292.922c-14.38,0-26.034-11.64-26.034-25.987c0-14.355,11.654-25.987,26.034-25.987
		c14.382,0,26.034,11.633,26.034,25.987C202.104,281.282,190.452,292.922,176.07,292.922L176.07,292.922L176.07,292.922
		L176.07,292.922z M415.351,256.173v-0.007h-22.308l0,0c3.754-10.681,13.005-18.228,23.821-18.228
		c10.816,0,20.066,7.554,23.819,18.235l0,0H415.351L415.351,256.173L415.351,256.173z"/>
	<g>
		<path style="fill:#B0B0B5;" d="M22.474,279.712c-2.14-3.775-3.368-8.132-3.368-12.778c0-3.063,0.535-6,1.509-8.728l-0.035-56.793
			c-0.001-0.989,0.572-1.837,1.4-2.253c-0.151-0.167-0.364-0.277-0.607-0.277H8.424H2.528c-1.397,0-2.529,1.133-2.528,2.53
			l0.04,65.434c0.066,25.561,20.767,46.276,46.37,46.276c3.542,0,6.989-0.404,10.304-1.156
			C40.256,308.245,27.145,295.782,22.474,279.712z"/>
		<path style="fill:#B0B0B5;" d="M92.484,254.194c-1.007,4.845-1.269,24.617-1.269,24.617c0.216-0.581,0.595-0.513,0.595-0.014
			v31.012c0,0.459,0.372,0.831,0.831,0.831h18.173c0-12.365,0-30.693,0-50.1c0-34.623,27.554-40.492,27.554-40.492
			C102.587,220.739,94.436,241.318,92.484,254.194z"/>
		<path style="fill:#B0B0B5;" d="M509.319,220.082c-34.896,0.979-43.904,21.065-46.328,33.863c-0.21,1.153-0.452,1.148-0.67,0.767
			c-0.657,3.854-0.98,13.849-1.117,19.684h0.025c0.459,0,0.831,0.372,0.831,0.831v34.582c0,0.459,0.372,0.831,0.831,0.831h18.324
			c0-12.365,0-30.693,0-50.1C481.214,227.302,507.234,220.569,509.319,220.082z"/>
		<path style="fill:#B0B0B5;" d="M140.786,236.565c-0.189,0.168-0.347,0.164-0.448,0.062l-3.592,4.711
			c0.175,0.1,0.156,0.294,0.003,0.515c-4.74,7.204-7.495,15.785-7.495,24.994c0,25.561,21.172,46.276,47.302,46.276
			c4.339,0,8.543-0.581,12.544-1.653c-13.585-3.874-42.099-15.636-42.099-46.127c0-29.211,26.17-39.909,40.313-43.558
			c-3.462-0.788-7.061-1.215-10.758-1.215C162.12,220.572,149.604,226.6,140.786,236.565z"/>
		<path style="fill:#B0B0B5;" d="M385.482,265.344c0-29.211,26.17-39.909,40.313-43.558c-0.2-0.046-0.405-0.078-0.605-0.121
			c-3.009-0.566-6.116-0.871-9.298-0.871c-21.795,0-40.214,13.936-46.074,33.03c-0.078,0.289-0.201,0.464-0.337,0.563
			c-2.33,8.16-2.336,16.795,0.036,25.034c0.133,0.065,0.242,0.174,0.274,0.322c5.82,19.16,24.252,33.164,46.101,33.164
			c2.49,0,4.92-0.172,7.282-0.497c1.491-0.255,2.967-0.553,4.408-0.939C413.996,307.596,385.482,295.834,385.482,265.344z"/>
		<path style="fill:#B0B0B5;" d="M263.816,312.665c1.654,0,3.285-0.169,4.873-0.457c-0.45-0.093-0.893-0.193-1.328-0.299
			c-14.288-3.484-24.143-16.591-24.143-31.299v-81.727h-18.918c-0.459,0-0.831,0.372-0.831,0.831v54.17
			c0,0.716-0.243,1.032-0.542,0.981v23.779l0.004,0.029c0.295,0.045,0.563,0.455,0.633,1.259
			C224.709,294.273,235.729,312.665,263.816,312.665z"/>
		<path style="fill:#B0B0B5;" d="M306.246,198.884h-18.4c-0.459,0-0.831,0.372-0.831,0.831v67.883c0,0.581-0.023,1.176-0.063,1.78
			v34.394c0.037,0.163,0.063,0.347,0.063,0.576v5.463c0,0.459,0.372,0.831,0.831,0.831h18.4V198.884z"/>
	</g>
</g>
<g>
</g>
<g>
</g>
<g>
</g>
<g>
</g>
<g>
</g>
<g>
</g>
<g>
</g>
<g>
</g>
<g>
</g>
<g>
</g>
<g>
</g>
<g>
</g>
<g>
</g>
<g>
</g>
<g>
</g>
</svg>
