<svg height="384pt" viewBox="0 0 384 384" width="384pt" xmlns="http://www.w3.org/2000/svg"><path d="m192 96c-52.9375 0-96 43.0625-96 96s43.0625 96 96 96 96-43.0625 96-96-43.0625-96-96-96zm0 160c-35.289062 0-64-28.710938-64-64s28.710938-64 64-64 64 28.710938 64 64-28.710938 64-64 64zm0 0"/><path d="m384 64c0-35.289062-28.710938-64-64-64-23.136719 0-44 12.640625-55.246094 31.832031-22.691406-10.34375-47.488281-15.832031-72.753906-15.832031-25.28125 0-50.097656 5.496094-72.753906 15.832031-11.246094-19.191406-32.109375-31.832031-55.246094-31.832031-35.289062 0-64 28.710938-64 64 0 23.136719 12.640625 44.007812 31.832031 55.246094-10.34375 22.691406-15.832031 47.488281-15.832031 72.753906 0 25.28125 5.496094 50.089844 15.824219 72.753906-19.191407 11.246094-31.824219 32.109375-31.824219 55.246094 0 35.289062 28.710938 64 64 64 23.136719 0 44-12.640625 55.246094-31.832031 22.691406 10.34375 47.488281 15.832031 72.753906 15.832031 25.28125 0 50.097656-5.496094 72.753906-15.832031 11.246094 19.191406 32.109375 31.832031 55.246094 31.832031 35.289062 0 64-28.710938 64-64 0-23.136719-12.640625-44.007812-31.832031-55.246094 10.34375-22.691406 15.832031-47.488281 15.832031-72.753906 0-25.28125-5.496094-50.089844-15.824219-72.753906 19.191407-11.246094 31.824219-32.109375 31.824219-55.246094zm-64-32c17.648438 0 32 14.351562 32 32 0 11.441406-6.167969 21.792969-15.566406 27.457031-.410156-.59375-.890625-1.128906-1.3125-1.714843-2.191406-3.0625-4.472656-6.054688-6.847656-8.964844-.792969-.96875-1.578126-1.945313-2.386719-2.898438-6.0625-7.117187-12.679688-13.734375-19.78125-19.78125-.929688-.792968-1.875-1.554687-2.808594-2.320312-2.953125-2.410156-5.984375-4.722656-9.089844-6.9375-.566406-.398438-1.078125-.863282-1.648437-1.265625 5.648437-9.414063 15.992187-15.574219 27.441406-15.574219zm-256 0c11.449219 0 21.792969 6.160156 27.457031 15.566406-.632812.441406-1.210937.953125-1.832031 1.402344-3.007812 2.144531-5.9375 4.382812-8.792969 6.710938-1 .816406-2 1.625-2.976562 2.457031-7.101563 6.054687-13.703125 12.664062-19.75 19.757812-.792969.929688-1.554688 1.875-2.320313 2.808594-2.417968 2.960937-4.738281 6-6.960937 9.113281-.398438.558594-.855469 1.070313-1.25 1.632813-9.40625-5.65625-15.574219-16.007813-15.574219-27.449219 0-17.648438 14.351562-32 32-32zm0 320c-17.648438 0-32-14.351562-32-32 0-11.441406 6.167969-21.792969 15.566406-27.457031.410156.59375.898438 1.128906 1.3125 1.722656 2.183594 3.0625 4.472656 6.054687 6.847656 8.964844.792969.96875 1.578126 1.9375 2.386719 2.890625 6.0625 7.117187 12.679688 13.734375 19.789063 19.789062.921875.785156 1.867187 1.546875 2.808594 2.3125 2.953124 2.410156 5.976562 4.722656 9.089843 6.9375.566407.398438 1.078125.863282 1.65625 1.265625-5.664062 9.414063-16.007812 15.574219-27.457031 15.574219zm55.039062-35.886719c-2.640624-1.546875-5.222656-3.167969-7.75-4.882812-16.066406-10.847657-29.769531-24.957031-40.289062-41.335938-1.046875-1.636719-2.128906-3.253906-3.113281-4.941406l-.09375-.167969c-12.945313-21.882812-19.792969-47.050781-19.792969-72.785156 0-25.777344 6.855469-50.976562 19.886719-72.960938 1.546875-2.640624 3.175781-5.222656 4.882812-7.75 11.949219-17.703124 27.816407-32.601562 46.34375-43.441406 21.910157-12.984375 47.109375-19.847656 72.886719-19.847656s50.976562 6.863281 72.960938 19.886719c2.640624 1.546875 5.222656 3.167969 7.75 4.882812 16.066406 10.847657 29.769531 24.957031 40.289062 41.335938 1.046875 1.636719 2.128906 3.253906 3.113281 4.941406l.09375.167969c12.945313 21.882812 19.792969 47.050781 19.792969 72.785156 0 25.777344-6.855469 50.976562-19.886719 72.960938-1.546875 2.640624-3.175781 5.222656-4.882812 7.75-11.949219 17.703124-27.816407 32.601562-46.34375 43.441406-21.910157 12.984375-47.109375 19.847656-72.886719 19.847656s-50.976562-6.863281-72.960938-19.886719zm200.960938 35.886719c-11.449219 0-21.792969-6.160156-27.457031-15.566406.632812-.441406 1.199219-.953125 1.824219-1.394532 3.007812-2.152343 5.945312-4.390624 8.808593-6.726562.992188-.808594 1.984375-1.609375 2.960938-2.441406 7.109375-6.054688 13.71875-12.671875 19.765625-19.773438.785156-.921875 1.546875-1.859375 2.304687-2.792968 2.425781-2.96875 4.746094-6.007813 6.96875-9.128907.390625-.550781.847657-1.0625 1.238281-1.625 9.417969 5.65625 15.585938 16.007813 15.585938 27.449219 0 17.648438-14.351562 32-32 32zm0 0"/><path d="m168 176h48v32h-48zm0 0"/></svg>