<svg height="384pt" viewBox="-48 0 384 384" width="384pt" xmlns="http://www.w3.org/2000/svg"><path d="m288 0h-288v384h288zm-32 352h-224v-320h224zm0 0"/><path d="m64 240c0 44.113281 35.886719 80 80 80s80-35.886719 80-80c0-27.558594-14.007812-51.902344-35.28125-66.304688 11.882812-11.625 19.28125-27.800781 19.28125-45.695312 0-35.289062-28.710938-64-64-64s-64 28.710938-64 64c0 17.894531 7.398438 34.070312 19.28125 45.695312-21.273438 14.402344-35.28125 38.746094-35.28125 66.304688zm48-112c0-17.648438 14.351562-32 32-32s32 14.351562 32 32-14.351562 32-32 32-32-14.351562-32-32zm32 64c26.472656 0 48 21.527344 48 48s-21.527344 48-48 48-48-21.527344-48-48 21.527344-48 48-48zm0 0"/></svg>