<svg height="384pt" viewBox="0 0 384 384" width="384pt" xmlns="http://www.w3.org/2000/svg"><path d="m352 130.800781v-42.800781c0-48.519531-39.480469-88-88-88s-88 39.480469-88 88v208c0 30.871094-25.128906 56-56 56s-56-25.128906-56-56v-42.800781c18.617188-6.605469 32-24.34375 32-45.199219v-96h-32v-48h-32v48h-32v96c0 20.855469 13.382812 38.59375 32 45.199219v42.800781c0 48.519531 39.480469 88 88 88s88-39.480469 88-88v-208c0-30.871094 25.128906-56 56-56s56 25.128906 56 56v42.800781c-18.617188 6.605469-32 24.34375-32 45.199219v160h96v-160c0-20.855469-13.382812-38.59375-32-45.199219zm-320 13.199219h32v64c0 8.824219-7.175781 16-16 16s-16-7.175781-16-16zm320 160h-32v-32h32zm-32-64v-64c0-8.824219 7.175781-16 16-16s16 7.175781 16 16v64zm0 0"/></svg>