<?xml version="1.0" encoding="iso-8859-1"?>
<!-- Generator: Adobe Illustrator 19.0.0, SVG Export Plug-In . SVG Version: 6.00 Build 0)  -->
<svg version="1.1" id="Capa_1" xmlns="http://www.w3.org/2000/svg" xmlns:xlink="http://www.w3.org/1999/xlink" x="0px" y="0px"
	 viewBox="0 0 511.999 511.999" style="enable-background:new 0 0 511.999 511.999;" xml:space="preserve">
<g>
	<path style="fill:#777777;" d="M305.3,491.181c-4.167,4.823-8.346,8.087-14.986,8.087c-7.677,0-13.672-5.519-13.672-12.55
		c0-6.232,2.666-9.919,10.544-14.676c0.561-0.332,1.158-0.26,1.561,0.121l16.431,17.223l0.439,0.884v0.036L305.3,491.181z
		 M294.066,435.909c5.261,0,8.086,3.63,8.086,8.057c0,5.176-4.621,8.179-10.192,11.292c-0.595,0.258-1.117,0.461-1.624-0.101
		c-1-0.891-5.412-6.273-5.412-10.049C284.923,439.948,288.624,435.909,294.066,435.909 M338.436,505.528l-15.67-16.194
		c-0.475-0.373-0.646-1.149-0.231-1.753l11.962-20.125c0.264-0.561,0.295-0.949,0.295-1.143c0-1.273-1.036-2.316-2.315-2.316h-8.747
		c-0.891,0-1.667,0.468-2.085,1.202l-7.576,13.073c-0.358,0.525-1.107,0.647-1.652,0.267l-12.233-12.579l-0.288-0.761l0.388-0.863
		c1.649-1.416,14.951-7.169,14.951-20.493c0-11.976-8.596-20.011-21.377-20.011c-12.52,0-22.038,8.39-22.038,20.902
		c0,6.333,3.082,11.982,7.152,16.899l0.244,0.848l-0.452,0.812c-10.415,5.923-15.677,13.765-15.677,23.359
		c0,16.274,13.621,24.798,27.075,24.798c9.244,0,16.452-3.543,23.396-11.515l0.135-0.171c0.412-0.418,1.181-0.418,1.647,0.064
		c9.282,9.605,8.857,9.603,10.293,9.603c11.367,0.016,11.12,0.015,11.12,0.015c1.294,0,2.321-1.034,2.321-2.314
		C339.074,506.527,338.839,505.953,338.436,505.528"/>
	<path style="fill:#777777;" d="M252.714,499.11c-12.38,0.335-19.456-6.113-19.456-19.795v-38.727c0-0.669,0.561-1.215,1.236-1.215
		h19.716c1.286,0,2.35-1.064,2.35-2.344v-8.604c0-1.301-1.064-2.35-2.35-2.35h-19.658c-0.705,0-1.294-0.561-1.294-1.279v-17.79
		c0.057-1.265-0.941-2.357-2.243-2.415h-0.266l-10.084,0.791c-1.251,0-2.307,1.035-2.307,2.336v17.143
		c0,0.676-0.553,1.214-1.228,1.214h-12.385c-1.294,0-2.343,1.035-2.343,2.336l-0.021,8.655c0.048,1.432,1.236,2.307,2.415,2.307
		h12.342c0.676,0,1.228,0.531,1.228,1.215l-0.007,41.315c0,22.173,16.697,30.094,31.339,30.094c0,0,1.732,0.028,3.062-0.109
		c1.322-0.129,2.313-1.05,2.313-2.342v-8.114C255.071,500.152,254.015,499.11,252.714,499.11"/>
	<path style="fill:#777777;" d="M181.06,474.054c-1.999,14.116-8.949,22.282-21.793,24.388c-9.042,1.481-17.229-2.236-17.668-11.917
		c-0.488-10.631,11.86-19.565,34.673-18.581C181.481,468.168,181.851,468.409,181.06,474.054 M196.269,506.103
		c-0.799-2.249-1.021-4.736-1.085-5.814c-0.129-2.413-0.079-45.976-0.079-44.973c0-21.613-15.281-29.297-29.585-29.297
		c-11.32,0-21.663,2.961-28.304,7.395c-1.076,0.705-1.438,2.095-0.705,3.199l5.268,7.123c0.741,1.028,2.185,1.259,3.213,0.518
		l0.711-0.474c5.197-3.227,11.343-5.088,17.581-5.088c17.653,0,17.136,13.822,17.136,15.626c0,0.919-0.546,1.143-1.207,1.12
		l-2.724-0.057c-13.707-0.503-48.445,4.162-48.445,31.704c0,16.188,13.483,24.431,26.062,24.431
		c11.305,0,22.012-4.469,26.947-10.817l0.258-0.122l0.302,0.308c-0.007,0.763,0,2.48,0.165,3.961
		c0.178,2.22,0.497,4.879,2.724,4.924l9.783,0.007c1.272,0,2.307-1.013,2.307-2.249
		C196.592,507.131,196.269,506.103,196.269,506.103"/>
	<path style="fill:#777777;" d="M385.464,499.11c-12.335,0.33-19.465-6.06-19.465-19.795v-38.727c0-0.669,0.561-1.215,1.23-1.215
		h19.708c1.309,0,2.37-1.064,2.37-2.344v-8.604c0-1.301-1.062-2.35-2.37-2.35H367.3c-0.719,0-1.302-0.561-1.302-1.279v-17.79
		c0.066-1.265-0.949-2.357-2.249-2.415h-0.266l-10.085,0.791c-1.243,0-2.301,1.035-2.301,2.336v17.143
		c0,0.676-0.553,1.214-1.243,1.214h-12.37c-1.301,0-2.344,1.035-2.344,2.336l-0.02,8.655c0.043,1.354,1.146,2.307,2.422,2.307
		h12.335c0.667,0,1.229,0.531,1.229,1.215v41.315c0,22.173,16.683,30.094,31.33,30.094c0,0,1.732,0.028,3.063-0.109
		c1.314-0.129,2.3-1.05,2.3-2.342l0.013-8.114C387.814,500.152,386.759,499.11,385.464,499.11"/>
</g>
<g>
	<path style="fill:#579ADD;" d="M71.949,139.348c3.101-10.894,7.071-21.401,11.963-31.424
		c-25.579,58.386,87.552,114.212,220.691,77.858c53.897-14.747,142.293-46.031,114.416-94.415
		c7.987,12.973,14.474,27.017,19.172,41.832c2.322,7.796,1.937,13.22,1.937,15.349c0,9.492-11.768,67.448-127.583,78.004
		c-10.024,0.871-83.571,2.032-147.534-14.14c-42.557-10.798-85.266-31.568-93.35-60.474
		C70.451,147.434,70.982,143.27,71.949,139.348"/>
	<path style="fill:#579ADD;" d="M251.97,324.21c-24.11,2.663-164.233,9.007-184.619-102.213
		c2.907,17.772,8.181,34.671,15.588,50.406c8.764,15.831,30.65,37.573,62.314,50.648c164.288,67.881,265.384-12.882,284.899-53.02
		c7.795-17.286,13.17-35.927,15.545-55.487C443.368,229.405,428.218,304.65,251.97,324.21"/>
	<path style="fill:#579ADD;" d="M247.808,362.705c-29.052,0-92.435-4.697-133.634-43.433
		c34.959,38.685,85.552,62.991,141.815,62.991c73.212,0,136.835-41.155,168.937-101.63
		C414.997,297.92,370.983,362.705,247.808,362.705"/>
	<path style="fill:#579ADD;" d="M134.995,269.302c41.347,16.899,106.955,29.732,144.237,28.378
		c134.459-4.795,164.286-72.68,167.384-92.484c1.393-19.172-0.084-39.604-4.892-59.408c14.134,63.381-67.687,96.593-131.069,110.734
		c-80.373,17.865-114.317,17.333-169.608-0.098c-48.373-15.252-74.761-50.695-75.534-81.15c-0.739,8.892-0.861,19.113-0.193,28.761
		C68.849,229.261,101.728,255.698,134.995,269.302"/>
	<path style="fill:#579ADD;" d="M197.451,141.335c20.143,2.566,73.454,9.827,114.706,6.438c90.81-7.49,113.909-43.861,96.254-71.997
		c-7.455-9.783-15.781-18.836-24.935-27.068c2.378,2.567,3.148,5.811,3.248,7.843c0.773,12.881-20.289,30.118-62.805,44.257
		c-26.529,8.86-61.683,17.285-105.259,17.285c-73.406,0-98.775-27.841-98.775-45.272c0-1.84-0.389-16.753,16.654-30.89
		c-15.541,12.443-29.096,27.304-40.138,44.01c-1.162,1.986-1.887,4.261-1.887,6.925C94.514,110.684,138.042,133.779,197.451,141.335
		"/>
	<path style="fill:#579ADD;" d="M142.738,46.576c1.402,19.175,52.098,34.236,113.303,32.684
		c84.081-2.193,131.206-32.982,96.738-52.97C324.356,9.585,291.288,0,255.988,0c-36.843,0-71.273,10.457-100.468,28.517
		C146.852,34.037,142.303,40.284,142.738,46.576"/>
</g>
<g>
	<path style="fill:#4987CE;" d="M222.922,361.589c-32.223-2.866-77.046-12.51-108.749-42.317
		c34.959,38.685,85.552,62.991,141.815,62.991c9.091,0,18.034-0.636,26.788-1.863C261.503,377.428,241.35,370.963,222.922,361.589z"
		/>
	<path style="fill:#4987CE;" d="M166.583,318.066c-43.288-10.8-88.342-36.659-99.231-96.069
		c2.907,17.772,8.181,34.671,15.588,50.406c8.764,15.831,30.65,37.573,62.314,50.648c14.228,5.879,27.971,10.619,41.239,14.391
		C179.397,331.471,172.742,324.994,166.583,318.066z"/>
	<path style="fill:#4987CE;" d="M128.123,251.662c-40.135-17.042-61.909-48.767-62.61-76.388
		c-0.739,8.892-0.861,19.113-0.193,28.761c3.53,25.226,36.409,51.663,69.676,65.267c0.002,0.001,0.005,0.002,0.008,0.003
		C132.428,263.569,130.131,257.682,128.123,251.662z"/>
</g>
<path style="fill:#579ADD;" d="M118.331,191.132c0-5.432,0.239-10.807,0.683-16.124c-31.255-17.045-46.17-41.822-35.102-67.085
	c-4.891,10.023-8.862,20.53-11.963,31.424c-0.966,3.922-1.498,8.087-0.288,12.59c5.016,17.934,23.364,32.733,46.731,43.965
	C118.352,194.316,118.331,192.727,118.331,191.132z"/>
<g>
	<path style="fill:#4987CE;" d="M140.696,101.359c-14.752-9.025-20.812-20.023-20.812-28.539c0-1.84-0.389-16.753,16.654-30.89
		c-15.541,12.443-29.096,27.304-40.139,44.01c-1.162,1.986-1.887,4.261-1.887,6.925c0,9.954,13.588,21.554,35.938,31.173
		C133.382,116.222,136.81,108.65,140.696,101.359z"/>
	<path style="fill:#4987CE;" d="M164.629,66.416C194.187,32.122,235.718,8.45,282.731,1.87C273.99,0.644,265.065,0,255.988,0
		c-36.844,0-71.273,10.457-100.468,28.517c-8.668,5.521-13.217,11.768-12.782,18.059C143.286,54.065,151.353,60.927,164.629,66.416z
		"/>
</g>
<g>
</g>
<g>
</g>
<g>
</g>
<g>
</g>
<g>
</g>
<g>
</g>
<g>
</g>
<g>
</g>
<g>
</g>
<g>
</g>
<g>
</g>
<g>
</g>
<g>
</g>
<g>
</g>
<g>
</g>
</svg>
