<?xml version="1.0" encoding="iso-8859-1"?>
<!-- Generator: Adobe Illustrator 19.0.0, SVG Export Plug-In . SVG Version: 6.00 Build 0)  -->
<svg version="1.1" id="Capa_1" xmlns="http://www.w3.org/2000/svg" xmlns:xlink="http://www.w3.org/1999/xlink" x="0px" y="0px"
	 viewBox="0 0 511.999 511.999" style="enable-background:new 0 0 511.999 511.999;" xml:space="preserve">
<g>
	<path style="fill:#579ADD;" d="M157.724,132.27H25.301c-9.362,0.069-16.93,7.685-16.93,17.063c0,9.383,7.568,16.998,16.93,17.068
		h75.03c9.364,0,14.981,10.646,9.793,18.473C109.517,185.808,2.288,354.21,2.288,354.21C1.235,355.955,0,359.223,0,362.634
		c0,9.308,7.467,16.881,16.738,17.062v0.005h140.986v-0.005c9.308-0.144,16.807-7.728,16.807-17.062
		c0-9.34-7.499-16.924-16.807-17.062l-0.293-0.006H74.604c-6.583,0-11.916-5.332-11.916-11.916c0-1.996,0.468-4.061,1.357-5.524
		L172.264,158.29l-0.006-0.006C179.224,147.007,171.127,132.27,157.724,132.27"/>
	<path style="fill:#579ADD;" d="M336.743,132.27c-0.037,0-132.034,0-132.034,0h-0.016c-9.431,0-17.073,7.637-17.073,17.073
		c0,9.42,7.642,17.062,17.068,17.062h0.021h29.841c9.404,0,17.036,7.627,17.036,17.036V360.43v0.043
		c0,10.596,8.59,19.186,19.186,19.186c10.596,0,19.191-8.59,19.191-19.186V183.442c0-9.409,7.626-17.036,17.031-17.036h29.75
		c9.425,0,17.068-7.642,17.068-17.073C353.811,139.907,346.168,132.27,336.743,132.27"/>
	<path style="fill:#579ADD;" d="M494.911,345.578c-0.165,0-72.885,0.016-72.885,0.016c-9.378,0-16.983-7.563-17.062-16.919v-38.484
		v-0.213c0-9.425,7.647-17.068,17.078-17.068h0.021h60.277c9.426,0,17.073-7.642,17.073-17.068c0-9.431-7.648-17.073-17.073-17.073
		h-60.474c-9.351-0.091-16.903-7.696-16.903-17.062v-38.494c0.133-9.308,7.722-16.807,17.062-16.807h0.021h73.077V166.4
		c9.34-0.106,16.876-7.706,16.876-17.068c0-9.356-7.536-16.956-16.876-17.062H383.632c-9.425,0-17.052,7.637-17.052,17.062
		c0,0.25-0.011,0.495,0,0.74c0,0-0.021,212.338-0.021,212.589c0,9.372,7.552,16.967,16.892,17.062v0.006h111.672
		c9.329-0.117,16.855-7.728,16.855-17.089C511.979,353.216,504.336,345.578,494.911,345.578"/>
</g>
<g>
	<path style="fill:#4987CE;" d="M25.301,166.4h30.907c-9.362-0.069-16.93-7.685-16.93-17.068c0-9.378,7.568-16.994,16.93-17.063
		H25.301c-9.362,0.069-16.93,7.685-16.93,17.063C8.371,158.716,15.94,166.331,25.301,166.4z"/>
	<path style="fill:#4987CE;" d="M30.908,362.634c0-3.411,1.234-6.679,2.288-8.425c0.896-1.435,107.616-168.998,107.835-169.336
		c5.182-7.818-0.42-18.473-9.793-18.473h-30.907c9.362,0,14.982,10.644,9.793,18.473C109.904,185.211,3.185,352.774,2.289,354.21
		C1.235,355.955,0,359.223,0,362.634c0,9.308,7.467,16.881,16.738,17.062v0.005h30.907v-0.005
		C38.374,379.516,30.908,371.943,30.908,362.634z"/>
	<path style="fill:#4987CE;" d="M282.492,360.474v-0.043V183.442c0-9.409-7.632-17.036-17.036-17.036h-29.841h-0.021
		c-9.425,0-17.067-7.642-17.067-17.062c0-9.436,7.642-17.073,17.073-17.073c-17.866,0-30.892,0-30.892,0h-0.016
		c-9.431,0-17.073,7.637-17.073,17.073c0,9.42,7.642,17.062,17.067,17.062h0.021h29.841c9.404,0,17.036,7.627,17.036,17.036v176.989
		v0.043c0,10.596,8.59,19.186,19.186,19.186c6.348,0,11.962-3.097,15.455-7.847C283.889,368.633,282.492,364.721,282.492,360.474z"
		/>
	<path style="fill:#4987CE;" d="M494.911,345.578c-0.091,0-22.255,0.005-42.115,0.009c0.046,0,0.091,0.007,0.137,0.007
		c0,0,22.213-0.005,42.113-0.009C495.001,345.585,494.957,345.578,494.911,345.578z"/>
	<path style="fill:#4987CE;" d="M397.467,362.662c0-0.25,0.021-212.589,0.021-212.589c-0.011-0.245,0-0.49,0-0.74
		c0-9.425,7.626-17.062,17.052-17.062h-30.907c-9.425,0-17.052,7.637-17.052,17.062c0,0.25-0.011,0.495,0,0.74
		c0,0-0.021,212.339-0.021,212.589c0,9.372,7.552,16.967,16.892,17.062v0.006h30.907v-0.006
		C405.019,379.629,397.467,372.034,397.467,362.662z"/>
</g>
<g>
</g>
<g>
</g>
<g>
</g>
<g>
</g>
<g>
</g>
<g>
</g>
<g>
</g>
<g>
</g>
<g>
</g>
<g>
</g>
<g>
</g>
<g>
</g>
<g>
</g>
<g>
</g>
<g>
</g>
</svg>
