<?xml version="1.0" encoding="iso-8859-1"?>
<!-- Generator: Adobe Illustrator 19.0.0, SVG Export Plug-In . SVG Version: 6.00 Build 0)  -->
<svg version="1.1" id="Capa_1" xmlns="http://www.w3.org/2000/svg" xmlns:xlink="http://www.w3.org/1999/xlink" x="0px" y="0px"
	 viewBox="0 0 512 512" style="enable-background:new 0 0 512 512;" xml:space="preserve">
<g>
	<g>
		<path style="fill:#E85454;" d="M77.233,247.971c-6.043-1.651-28.791-6.129-34.74-7.087c-7.824-1.15-12.361-2.873-12.361-8.236
			c0-7.28,11.567-6.021,20.969-5.557c11.086,0.551,31.497,8.653,38.708,12.199c0.478,0.235,1.046,0.003,1.232-0.496l6.738-18.078
			c0.153-0.411-0.004-0.877-0.385-1.096c-12.215-7.016-34.818-10.341-49.265-10.341c-10.642,0.19-46.193,3.259-46.633,26.43
			c-0.312,16.474,11.469,22.453,26.445,27.01c12.831,3.254,27.072,4.787,36.775,7.282c12.428,3.185,12.363,13.978,2.503,15.128
			c-16.636,1.485-44.575-8.355-58.095-16.317c-0.476-0.281-1.084-0.075-1.29,0.438l-7.767,19.368
			c-0.167,0.416-0.007,0.896,0.381,1.121c29.094,16.814,101.353,21.835,101.353-13.042
			C101.799,260.693,90.533,251.61,77.233,247.971z"/>
		<path style="fill:#E85454;" d="M244.068,214.004l-40.29,84.017c-0.286,0.597,0.149,1.288,0.811,1.288h16.473
			c0.344,0,0.657-0.196,0.808-0.505l9.052-18.536c0.151-0.309,0.464-0.505,0.808-0.505h45.313c0.343,0,0.656,0.195,0.807,0.503
			l9.092,18.539c0.151,0.308,0.464,0.503,0.807,0.503h26.63c0.666,0,1.101-0.699,0.807-1.296l-41.364-84.017
			c-0.151-0.307-0.464-0.502-0.807-0.502h-28.138C244.533,213.494,244.218,213.692,244.068,214.004z M239.919,261.239l13.298-27.87
			c0.324-0.679,1.288-0.684,1.619-0.009l13.676,27.87c0.293,0.598-0.142,1.295-0.807,1.295H240.73
			C240.069,262.525,239.634,261.836,239.919,261.239z"/>
		<path style="fill:#E85454;" d="M412.125,238.578c-0.165-31.412-43.658-28.54-51.17-28.54c-7.379,0-27.899,0.925-41.82,3.32
			c-0.432,0.074-0.739,0.45-0.739,0.888v84.158c0,0.497,0.403,0.899,0.899,0.899h20.9c0.497,0,0.899-0.403,0.899-0.899v-71.072
			c0-0.465,0.346-0.854,0.809-0.896c8.076-0.729,19.008-1.268,22.336-1.268c3.444,0,21.128-0.763,21.284,14.751
			c0.148,14.75-16.431,14.941-23.629,14.941c-4.252,0-7.817-1.01-11.47-2.085c-0.423-0.124-0.875,0.076-1.066,0.473l-3.632,7.576
			c-0.159,0.332-0.1,0.728,0.15,0.999l34.37,37.19c0.17,0.184,0.41,0.289,0.66,0.289h31.172c0.785,0,1.193-0.936,0.659-1.511
			l-28.083-30.23c-0.464-0.499-0.225-1.305,0.434-1.481C397.726,262.71,412.213,255.218,412.125,238.578z"/>
		<path style="fill:#E85454;" d="M479.001,210.935c-15.522-1.872-43.911-0.209-59.211,2.423c-0.432,0.074-0.739,0.45-0.739,0.888
			v84.158c0,0.497,0.403,0.899,0.899,0.899h20.567c0.497,0,0.899-0.403,0.899-0.899v-28.93c0-0.587,0.554-1.008,1.124-0.866
			c28.109,6.993,69.46,0.456,69.46-28.689C512,219.434,493.769,212.961,479.001,210.935z M441.959,253.179
			c-0.333-0.141-0.543-0.472-0.543-0.834v-25.019c0-0.463,0.343-0.851,0.803-0.895c7.53-0.726,18.731-1.263,22.055-1.263
			c3.441,0,21.287,0.961,21.438,15.135C485.937,261.892,450.894,256.954,441.959,253.179z"/>
		<path style="fill:#E85454;" d="M175.596,246.823H131.08c-0.497,0-0.899-0.403-0.899-0.899v-31.53c0-0.497-0.403-0.899-0.899-0.899
			h-21.989c-0.497,0-0.899,0.403-0.899,0.899v84.017c0,0.497,0.403,0.899,0.899,0.899h21.989c0.497,0,0.899-0.403,0.899-0.899
			v-33.453c0-0.497,0.403-0.899,0.899-0.899h44.517c0.497,0,0.899,0.403,0.899,0.899v33.453c0,0.497,0.403,0.899,0.899,0.899h21.987
			c0.497,0,0.899-0.403,0.899-0.899c0-1.201,0-85.146,0-84.017c0-0.497-0.403-0.899-0.899-0.899h-21.987
			c-0.497,0-0.899,0.403-0.899,0.899v31.53C176.496,246.42,176.093,246.823,175.596,246.823z"/>
	</g>
	<g>
		<path style="fill:#D84848;" d="M9.123,268.813c-0.476-0.281-1.085-0.075-1.29,0.438l-7.767,19.368
			c-0.167,0.416-0.007,0.896,0.381,1.121c3.272,1.891,6.848,3.522,10.565,4.932c0.009-0.084,0.018-0.169,0.049-0.25l8.365-20.419
			C16.07,272.521,12.306,270.687,9.123,268.813z"/>
		<path style="fill:#D84848;" d="M27.941,262.72c2.545,0.646,5.147,1.221,7.757,1.752c-12.883-4.708-22.457-11.406-22.176-27.173
			c0.387-21.608,27.935-26.725,41.805-27.781c-2.547-0.159-4.97-0.239-7.198-0.239c-10.642,0.19-46.193,3.259-46.633,26.43
			C1.185,252.184,12.965,258.163,27.941,262.72z"/>
		<path style="fill:#D84848;" d="M215.803,298.022l40.29-84.017c0.15-0.312,0.465-0.51,0.811-0.51h-12.025
			c-0.346,0-0.661,0.198-0.811,0.51l-40.29,84.017c-0.286,0.597,0.149,1.288,0.811,1.288h12.025
			C215.952,299.31,215.517,298.619,215.803,298.022z"/>
	</g>
</g>
<g>
	<path style="fill:#D84848;" d="M350.426,252.775c-0.423-0.124-0.875,0.076-1.066,0.473l-3.632,7.576
		c-0.159,0.332-0.1,0.728,0.15,0.999l34.37,37.19c0.17,0.184,0.41,0.289,0.66,0.289h12.969l-42.649-46.294
		C350.961,252.931,350.694,252.854,350.426,252.775z"/>
	<g>
		<path style="fill:#D84848;" d="M330.421,211.838c-3.967,0.422-7.83,0.925-11.286,1.52c-0.432,0.074-0.739,0.45-0.739,0.888v84.158
			c0,0.497,0.403,0.899,0.899,0.899h11.126L330.421,211.838L330.421,211.838z"/>
		<path style="fill:#D84848;" d="M368.581,225.261l-0.001,0.001c6.409,0.439,16.824,2.764,16.944,14.657
			c0.1,9.964-7.434,13.281-14.552,14.387c1.816,0.344,3.701,0.569,5.739,0.569c7.66,0,25.303-0.204,25.145-15.9
			C401.856,223.649,383.071,222.067,368.581,225.261z"/>
		<path style="fill:#D84848;" d="M468.042,256.131c2.32,0.178,4.636,0.263,6.848,0.263c7.198,0,23-1.345,22.847-16.091
			c-0.151-14.173-17.997-15.135-21.438-15.135c-1.456,0-4.424,0.103-7.933,0.28c6.425,0.806,17.228,3.839,17.345,14.855
			C485.835,252.089,475.766,255.311,468.042,256.131z"/>
		<path style="fill:#D84848;" d="M431.075,298.404v-86.219c0-0.126,0.031-0.244,0.078-0.354c-3.994,0.423-7.885,0.929-11.364,1.527
			c-0.432,0.074-0.739,0.45-0.739,0.888v84.158c0,0.497,0.403,0.899,0.899,0.899h12.025
			C431.478,299.303,431.075,298.901,431.075,298.404z"/>
		<path style="fill:#D84848;" d="M118.418,298.411v-84.017c0-0.497,0.403-0.899,0.899-0.899h-12.025
			c-0.497,0-0.899,0.403-0.899,0.899v84.017c0,0.497,0.403,0.899,0.899,0.899h12.025C118.82,299.31,118.418,298.907,118.418,298.411
			z"/>
		<path style="fill:#D84848;" d="M188.521,245.923v-31.53c0-0.497,0.403-0.899,0.899-0.899h-12.025
			c-0.497,0-0.899,0.403-0.899,0.899v31.53c0,0.497-0.403,0.899-0.899,0.899h12.025C188.118,246.823,188.521,246.42,188.521,245.923
			z"/>
		<path style="fill:#D84848;" d="M188.521,298.411v-33.453c0-0.497-0.403-0.899-0.899-0.899h-12.025
			c0.497,0,0.899,0.403,0.899,0.899v33.453c0,0.497,0.403,0.899,0.899,0.899h12.025C188.923,299.31,188.521,298.907,188.521,298.411
			z"/>
	</g>
</g>
<g>
</g>
<g>
</g>
<g>
</g>
<g>
</g>
<g>
</g>
<g>
</g>
<g>
</g>
<g>
</g>
<g>
</g>
<g>
</g>
<g>
</g>
<g>
</g>
<g>
</g>
<g>
</g>
<g>
</g>
</svg>
