<?xml version="1.0" encoding="iso-8859-1"?>
<!-- Generator: Adobe Illustrator 19.0.0, SVG Export Plug-In . SVG Version: 6.00 Build 0)  -->
<svg version="1.1" id="Capa_1" xmlns="http://www.w3.org/2000/svg" xmlns:xlink="http://www.w3.org/1999/xlink" x="0px" y="0px"
	 viewBox="0 0 512 512" style="enable-background:new 0 0 512 512;" xml:space="preserve">
<g>
	<path style="fill:#777777;" d="M182.914,389.362l21.116-18.139c0.683-0.426,0.753-1.979-0.548-1.979h-10.391
		c-0.944,0-1.743,0.312-2.418,0.916l-17.576,15.937c-0.626,0.56-1.074,1.173-1.355,1.831v-37.415c0-0.784-0.41-1.168-1.191-1.168
		h-5.016c-3.261,0-4.891,1.496-4.891,4.522v59.783c0,0.768,0.423,1.153,1.299,1.153h8.609c0.781,0,1.191-0.385,1.191-1.153v-22.323
		c0.281,0.715,0.728,1.438,1.355,2.167l17.576,20.156c0.674,0.768,1.474,1.153,2.418,1.153h10.673c0.752,0,1.136-0.308,1.136-0.906
		c-0.033-0.105-0.214-0.538-0.565-1.26L182.914,389.362z"/>
	<path style="fill:#777777;" d="M493.189,349.346h-5.017c-3.256,0-4.893,1.496-4.893,4.522v59.783c0,0.768,0.437,1.153,1.286,1.153
		h8.624c0.777,0,1.168-0.385,1.168-1.153v-63.137C494.356,349.73,493.965,349.346,493.189,349.346z"/>
	<path style="fill:#777777;" d="M510.835,349.346h-5.005c-3.276,0-4.904,1.496-4.904,4.522v59.783c0,0.768,0.432,1.153,1.283,1.153
		h8.626c0.759,0,1.165-0.385,1.165-1.153v-63.137C512,349.73,511.595,349.346,510.835,349.346z"/>
	<path style="fill:#777777;" d="M291.451,376.496v-4.109c0-1.125-0.286-1.934-0.813-2.359c-0.974-0.823-4.629-1.234-10.947-1.234
		c-13.137,0-19.675,5.504-19.675,16.565v28.249c0,0.81,0.446,1.235,1.352,1.235h8.483c0.909,0,1.36-0.426,1.36-1.235v-29.896
		c0-4.149,2.691-6.242,8.022-6.242c6.21,0,9.82,0.069,10.848,0.173C290.995,377.644,291.451,377.263,291.451,376.496z"/>
	<path style="fill:#777777;" d="M478.579,382.236c0-8.948-7.738-13.441-23.227-13.441c-16.444,0-24.694,6.421-24.694,22.782
		c0,15.919,6.373,23.684,25.237,23.684c10.692,0,16.738-0.474,18.121-1.404c1.107-0.477,1.562-1.437,1.378-2.862V406.9
		c0-0.722-0.454-1.044-1.378-0.977c-9.393,0.469-12.674,0.722-16.488,0.722c-11.911,0-14.552-4.507-15.37-10.402
		C456.446,397.16,478.579,396.53,478.579,382.236z M441.784,389.009c0.192-8.558,3.354-12.026,14.383-12.026
		c7.467,0,11.21,1.841,11.21,5.503c0,2.18-1.044,3.745-3.095,4.668C459.265,389.391,449.165,389.189,441.784,389.009z"/>
	<path style="fill:#777777;" d="M155.899,406.149l-4.473,0.296c-5.746,0.49-18.895,1.027-22.801-3.19
		c-3.639-4.129-4.391-18.465,0.431-22.795c5.206-4.732,26.088-2.295,27.088-2.295c0.669,0,0.988-0.306,0.988-0.895v-4.09
		c0-2.967-3.019-3.751-6.443-4.001c-5.137-0.378-8.409-0.512-15.127-0.009c-14.146,1.064-21.205,8.462-21.205,22.207
		c0,16.236,8.298,24.336,24.924,24.336c6.951,0,18.347,0.606,18.093-4.141l-0.242-4.316
		C157.084,406.455,156.659,406.089,155.899,406.149z"/>
	<path style="fill:#777777;" d="M229.897,368.795c-0.001,0-1.014,0-1.015,0c-21.299,0-26.075,7.906-26.075,23.766
		c0,16.588,10.324,23.225,26.568,22.686c5.298,0.163,11.331-0.498,16.101-2.874c0.687,1.507,2.123,2.268,4.363,2.268h5.031
		c0.719,0,1.073-0.351,1.073-0.991c0-21.609,1.014-32.375-4.451-38.387C247.599,370.955,240.428,368.795,229.897,368.795z
		 M229.375,406.645c-11.317,0-15.64-2.987-15.64-13.843c0-11.961,2.874-15.331,15.64-15.331c12.858,0,15.666,3.463,15.666,15.331
		C245.042,403.765,240.562,406.645,229.375,406.645z"/>
	<path style="fill:#777777;" d="M85.482,368.795c-0.002,0-1.028,0-1.028,0c-21.213,0-26.052,7.832-26.052,23.766
		c0,16.371,10.047,23.226,26.574,22.686c5.246,0.174,11.321-0.503,16.085-2.874c0.696,1.507,2.141,2.268,4.383,2.268h5.008
		c0.736,0,1.095-0.351,1.095-0.991v-20.624C111.547,376.982,107.319,368.795,85.482,368.795z M84.976,406.645
		c-11.111,0-15.638-2.82-15.638-13.843c0-11.863,2.748-15.331,15.638-15.331c12.979,0,15.636,3.531,15.636,15.331
		C100.612,403.914,96.008,406.645,84.976,406.645z"/>
	<path style="fill:#777777;" d="M402.104,368.815c-4.116,0-11.518-0.235-17.989,2.863V354.04c0-3.219-1.608-4.841-4.818-4.841
		h-4.769c-0.869,0-1.3,0.388-1.3,1.14l0,0l0.037,40.727l0,0c0,16.685,4.887,24.248,27.47,24.248
		c21.976,0,27.484-7.223,27.484-23.772C428.219,376.374,419.507,368.815,402.104,368.815z M400.735,406.628
		c-13.269-0.014-16.171-3.387-16.171-15.341c0-10.832,4.527-13.864,15.929-13.864c11.505,0,16.39,2.574,16.39,13.864
		C416.883,403.088,414.186,406.614,400.735,406.628z"/>
	<path style="fill:#777777;" d="M343.762,349.199h-4.789c-3.212,0-4.832,1.622-4.832,4.841v17.638
		c-6.392-3.074-13.746-2.863-17.995-2.863c-17.379,0-26.105,7.559-26.105,22.728c0,16.513,5.452,23.772,27.488,23.772
		c23.176,0,27.467-8.131,27.467-24.248l0,0l0.043-40.727C345.04,349.588,344.599,349.199,343.762,349.199z M330.791,403.352
		c-2.156,2.167-6.561,3.269-13.262,3.276c-6.701-0.007-11.119-1.109-13.243-3.276c-1.955-2.025-2.933-6.045-2.933-12.065
		c0-5.206,1.154-8.802,3.453-10.827c2.29-2.023,6.449-3.037,12.475-3.037h0.492c6.029,0,10.194,1.014,12.482,3.037
		c2.29,2.025,3.449,5.62,3.449,10.827C333.705,397.307,332.74,401.327,330.791,403.352z"/>
	<path style="fill:#777777;" d="M27.497,368.703c-22.076,0-27.474,7.071-27.474,24.255H0.014L0,433.688
		c0,0.742,0.418,1.116,1.284,1.116h4.773c3.22,0,4.82-1.608,4.82-4.822l-0.027-17.665c6.155,2.996,13.091,2.897,18.018,2.897
		c17.407,0,26.096-7.572,26.096-22.722C54.964,375.962,49.578,368.703,27.497,368.703z M27.736,406.592
		c-11.559,0-16.414-2.624-16.414-13.866c0-11.945,2.88-15.321,16.176-15.321c13.316,0,16.162,3.408,16.162,15.321
		C43.659,402.977,39.834,406.592,27.736,406.592z"/>
</g>
<g>
	<path style="fill:#E85454;" d="M22.826,148.043c-4.66,1.918-3.686,4.962-1.764,6.256l7.82,5.475
		c7.103,5.007,16.782,3.101,24.874-0.158l76.625-30.093c1.062-0.604,12.002-4.676,26.611,6.76
		c5.134,3.374,29.472,17.147,42.75,20.705c19.568,5.187,40.407,5.907,61.536,1.052c13.369-3.05,50.681-19.889,58.618-32.113
		c13.894-20.888-47.412-41.304-69.878-45.89C208.169,71.639,202.127,78.429,22.826,148.043z M235.403,140.652
		c-5.395,0.751-10.515,0.678-16.107-0.196c-15.666-2.402-46.364-16.183-44.782-25.161c0.152-1.066,0.71-2.143,1.652-3.27
		c6.271-7.604,33.015-16.966,45.508-19.023c10.529-1.758,20.085-0.028,31.302,3.715c7.972,2.634,19.483,7.33,26.402,12.139
		c2.271,1.629,5.524,4.408,5.416,7.213C284.316,123.583,253.965,138.36,235.403,140.652z"/>
	<path style="fill:#E85454;" d="M483.116,176.236c-19.859-17.694-71.104-36.269-96.794-42.04
		c-28.563-6.274-48.887-4.571-73.628,5.454c-10.607,4.262-70.252,33.91-71.253,34.817c-2.919,1.399-28.247,13.555-53.255,26.404
		c-54.565,28.028-54.479,33.172-54.416,35.417c0.245,9.114,58.518,63.191,105.974,81.284c14.308,5.453,29.769,9.075,45.352,9.075
		c20.427,0,40.417-7.308,58.295-17.031c26.509-14.474,58.385-36.94,46.889-64.906c35.577,3.041,67.403-8.066,90.328-29.55
		C494.218,202.406,493.93,184.438,483.116,176.236z M309.061,281.811c-10.788,5.608-23.364,10.68-35.571,10.831
		c-25.841,0-62.263-25.258-72.559-37.528c-2.081-2.508-3.545-4.823-4.368-7.028c-4.116-11.114,5.764-18.706,17.652-26.184
		c36.407-22.835,56.507-20.653,73.792-15.147c14.287,4.553,53.066,22.724,56.315,37.762c0.379,1.937,0.102,4.09,0.168,3.304
		C345.668,261.519,321.377,275.367,309.061,281.811z M387.344,220.82c-0.499,0-1.022,0-1.52-0.038
		c-23.984-0.428-78.936-25.431-76.787-39.797c-0.21-1.418,0.01-2.881,0.678-4.373c4.808-11.452,38.82-26.269,55.224-26.681h0.966
		c21.674,0,81.156,22.706,79.219,36.753C446.957,198.237,412.39,220.82,387.344,220.82z"/>
</g>
<g>
	<path style="fill:#D84848;" d="M250.861,96.037c8.583,2.681,21.168,7.711,28.518,12.82c2.27,1.628,5.524,4.408,5.416,7.213
		c-0.475,7.462-34.036,25.099-57.292,25.099c4.101,1.356,7.897,2.367,12.249,3.035c26.678,4.166,65.007-16.667,65.499-24.386
		C305.603,110.692,267.89,96.269,250.861,96.037z"/>
	<path style="fill:#D84848;" d="M41.518,158.045c-1.875-1.263-2.969-4.308,1.764-6.256c164.447-63.846,163.53-63.7,177.345-67.084
		c14.108-3.493,24.822-4.065,37.342-2.814c-2.716-0.706-5.356-1.325-7.952-1.855c-41.837-8.396-47.865-1.617-227.191,68.006
		c-4.664,1.919-3.684,4.964-1.764,6.256l7.82,5.475c5.229,3.686,11.903,3.595,18.063,2.071L41.518,158.045z"/>
	<path style="fill:#D84848;" d="M343.355,277.501c8.788-5.555,22.488-15.517,21.591-25.933c-0.065,0.788,0.21-1.375-0.168-3.304
		c-3.539-16.383-53.184-40.996-76.322-41.437c-0.089-0.005-0.177-0.005-0.265-0.01c14.162,4.543,52.883,22.667,56.13,37.7
		c0.378,1.93,0.103,4.092,0.168,3.304c1.175,13.646-22.912,27.441-35.429,33.99c-10.772,5.6-23.167,10.582-35.197,10.817
		C290.633,298.441,307.953,300.029,343.355,277.501z"/>
	<path style="fill:#D84848;" d="M211.275,294.109c-11.257-8.534-56.772-43.826-57.048-54.074c-0.064-2.245-0.15-7.389,54.416-35.417
		c25.007-12.849,50.335-25.005,53.254-26.404c1-0.905,60.598-30.535,71.253-34.817c21.344-8.648,37.976-10.285,55.453-8.467
		c0.578,0.062,1.172,0.146,1.755,0.215c-1.359-0.332-2.706-0.651-4.037-0.949c-28.612-6.285-48.928-4.554-73.628,5.454
		c-10.607,4.262-70.252,33.91-71.253,34.817c-2.919,1.399-28.247,13.555-53.254,26.404c-54.565,28.028-54.479,33.172-54.416,35.417
		c0.243,9.062,58.385,63.141,105.974,81.284c11.321,4.315,23.266,7.447,35.379,8.592
		C252.654,320.157,229.929,307.734,211.275,294.109z"/>
	<path style="fill:#D84848;" d="M445.124,186.685c1.835,11.561-32.781,34.135-57.78,34.135c-0.499,0-1.022,0-1.52-0.038
		c-0.271-0.005-0.554-0.026-0.829-0.035c21.125,6.33,39.1,5.417,60.882-8.424c6.912-4.423,20.975-13.882,19.703-21.891
		c1.88-13.631-47.391-30.689-60.658-34.051c-3.783-0.96-7.307-1.674-10.55-2.125c-2.077-0.285-4.052-0.456-5.923-0.531
		C398.883,156.736,446.965,173.339,445.124,186.685z"/>
</g>
<g>
</g>
<g>
</g>
<g>
</g>
<g>
</g>
<g>
</g>
<g>
</g>
<g>
</g>
<g>
</g>
<g>
</g>
<g>
</g>
<g>
</g>
<g>
</g>
<g>
</g>
<g>
</g>
<g>
</g>
</svg>
