<?xml version="1.0" encoding="iso-8859-1"?>
<!-- Generator: Adobe Illustrator 19.0.0, SVG Export Plug-In . SVG Version: 6.00 Build 0)  -->
<svg version="1.1" id="Capa_1" xmlns="http://www.w3.org/2000/svg" xmlns:xlink="http://www.w3.org/1999/xlink" x="0px" y="0px"
	 viewBox="0 0 512 512" style="enable-background:new 0 0 512 512;" xml:space="preserve">
<g>
	<path style="fill:#579ADD;" d="M506.262,0C503.931,0,15.79,0,5.737,0C2.569,0,0,2.569,0,5.738v500.525
		C0,509.431,2.569,512,5.737,512h500.525c3.169,0,5.738-2.569,5.738-5.738c0-2.33,0-490.472,0-500.525
		C512,2.569,509.431,0,506.262,0z"/>
	<path style="fill:#4987CE;" d="M20.605,506.262V5.738C20.605,2.569,23.173,0,26.342,0H5.737C2.569,0,0,2.569,0,5.738v500.525
		C0,509.431,2.569,512,5.737,512h20.605C23.173,512,20.605,509.431,20.605,506.262z"/>
	<g>
		<path style="fill:#FFFFFF;" d="M82.441,222.866L82.441,222.866c0,0.615,0.498,1.113,1.113,1.113h28.942
			c0.615,0,1.113-0.498,1.113-1.113v-21.15c0-0.615,0.498-1.113,1.113-1.113h13.115c0.615,0,1.113,0.498,1.113,1.113v55.97
			c0,0.615-0.498,1.113-1.113,1.113h-13.115c-0.615,0-1.113-0.498-1.113-1.113v-23.34c0-0.615-0.498-1.113-1.113-1.113H83.554
			c-0.615,0-1.113,0.498-1.113,1.113v23.34c0,0.615-0.498,1.113-1.113,1.113H68.212c-0.615,0-1.113-0.498-1.113-1.113v-55.97
			c0-0.615,0.498-1.113,1.113-1.113h13.091c0.629,0,1.138,0.51,1.138,1.138C82.441,201.741,82.441,222.866,82.441,222.866z"/>
		<path style="fill:#FFFFFF;" d="M155.595,200.603L155.595,200.603c0.615,0,1.113,0.498,1.113,1.113v55.97
			c0,0.615-0.498,1.113-1.113,1.113h-13.358c-0.615,0-1.113-0.498-1.113-1.113v-55.995c0-0.6,0.487-1.087,1.087-1.087h13.384
			V200.603z"/>
	</g>
	<g>
		<path style="fill:#777777;" d="M82.441,285.828c-5.114,0-8.28,3.408-9.74,5.603c0-1.951,0-5.603,0-5.603h-0.488l-11.201,1.707
			v1.945h0.486c3.652,0.244,4.382,0.975,4.382,4.14v18.018h6.82v-13.146c0-3.408,3.408-8.036,6.817-8.036
			c3.41,0,3.654,2.677,3.654,7.305v13.878h6.817V293.62C89.988,288.749,87.31,285.828,82.441,285.828L82.441,285.828z"/>
		<path style="fill:#777777;" d="M109.469,295.815c-2.678-1.219-5.113-2.438-5.113-4.384c0-2.971,6.439-2.845,10.227,0l1.218,0.726
			c0-2.104,0-0.661,0-5.354h-0.974c-4.567-1.829-16.802-1.917-16.802,6.573c0,4.14,4.14,6.091,7.792,8.036
			c2.678,1.219,5.357,2.677,5.357,4.628c0,1.945-1.704,2.921-4.625,2.921c-3.791,0-6.735-2.269-8.524-3.165v5.359
			c1.827,0.609,5.231,1.214,8.279,1.214c7.062,0,11.202-2.921,11.202-7.792C117.505,299.711,113.365,297.76,109.469,295.815
			L109.469,295.815z"/>
		<path style="fill:#777777;" d="M140.15,285.828c-2.678,0-5.113,1.219-7.548,3.652c0-1.214,0-3.652,0-3.652h-0.486l-10.958,1.707
			v1.945h0.486c3.41,0.244,4.14,0.975,4.14,4.14v28.736h6.818c0,0,0-10.957,0-13.151c1.218,1.707,3.41,3.165,7.306,3.165
			c7.061,0,10.957-4.871,10.957-13.634C150.864,290.456,146.968,285.828,140.15,285.828L140.15,285.828z M137.958,289.724
			c4.87,0,5.358,5.115,5.358,9.011c0,6.573-1.704,9.738-5.114,9.738c-4.626,0-5.6-4.14-5.6-7.792v-2.189
			C132.602,295.815,133.088,289.724,137.958,289.724L137.958,289.724z"/>
	</g>
	<g>
		<path style="fill:#FFFFFF;" d="M370.99,200.603v22.262c0,0.615,0.498,1.113,1.113,1.113h28.932c0.619,0,1.119-0.498,1.113-1.117
			c-0.038-3.956-0.156-17.273-0.061-21.175c0.015-0.605,0.507-1.083,1.112-1.083h12.402c1.405,0,1.898,0.498,1.898,1.113v55.97
			c0,0.615-0.498,1.113-1.113,1.113h-13.115c-0.615,0-1.113-0.498-1.113-1.113v-23.34c0-0.615-0.498-1.113-1.113-1.113h-28.943
			c-0.615,0-1.113,0.498-1.113,1.113v23.34c0,0.615-0.498,1.113-1.113,1.113h-13.354c-0.616,0-1.115-0.499-1.113-1.115
			c0.029-7.331,0.187-48.55,0.047-55.944c-0.012-0.624,0.489-1.136,1.113-1.136h14.421V200.603z"/>
		<path style="fill:#FFFFFF;" d="M224.647,200.603v8.87c0,0.615-0.498,1.113-1.113,1.113h-21.395c-0.615,0-1.113,0.498-1.113,1.113
			v45.987c0,0.615-0.498,1.113-1.113,1.113h-13.115c-0.615,0-1.113-0.498-1.113-1.113v-45.987c0-0.615-0.498-1.113-1.113-1.113
			h-21.395c-0.615,0-1.113-0.498-1.113-1.113v-7.757c0-0.615,0.498-1.113,1.113-1.113L224.647,200.603L224.647,200.603z"/>
		<path style="fill:#FFFFFF;" d="M284.546,258.799c0,0-13.026,0-16.305,0c-0.451,0-0.852-0.272-1.023-0.689l-4.545-11.039
			c-0.172-0.417-0.578-0.689-1.029-0.689h-27.473c-0.458,0-0.869,0.28-1.036,0.707l-4.316,11.004
			c-0.167,0.426-0.578,0.707-1.036,0.707h-14.779c-0.815,0-1.354-0.847-1.008-1.585l26.23-55.97
			c0.183-0.391,0.576-0.641,1.008-0.641h17.335c0.432,0,0.825,0.25,1.008,0.641L284.546,258.799L284.546,258.799z M248.022,210.586
			l-10.09,24.766c-0.298,0.732,0.24,1.533,1.031,1.533h18.118c0.79,0,1.329-0.801,1.031-1.533L248.022,210.586L248.022,210.586z"/>
		<path style="fill:#FFFFFF;" d="M443.903,200.603L443.903,200.603c0.615,0,1.113,0.498,1.113,1.113v55.97
			c0,0.615-0.498,1.113-1.113,1.113h-13.115c-0.615,0-1.113-0.498-1.113-1.113v-56.43c0-0.361,0.292-0.653,0.653-0.653
			L443.903,200.603L443.903,200.603z"/>
		<path style="fill:#FFFFFF;" d="M284.061,242.729c-1.463-3.896-2.192-8.036-2.192-12.419c0-30.04,30.128-36.896,53.814-27.029
			c5.6,2.436,9.74,7.305,10.957,13.393c0.155,0.774,0.31,1.548,0.465,2.321c0.138,0.689-0.389,1.331-1.091,1.331H332.13
			c-0.57,0-1.069-0.429-1.108-0.998c-0.514-7.489-6.852-11.176-14.819-11.176c-13.191,0-18.02,8.98-18.02,22.159
			c0,3.408,0.488,6.817,1.46,10.227c4.13,14.027,26.264,13.413,30.44,3.41c0.816-1.43,1.119-3.203,1.195-5.03
			c0.025-0.592,0.515-1.058,1.108-1.058h14.083c0.643,0,1.149,0.545,1.114,1.188c-0.08,1.479-0.314,2.869-0.7,4.413
			c-1.46,5.6-5.357,10.471-10.713,12.662C317.682,264.252,289.984,260.493,284.061,242.729L284.061,242.729z"/>
	</g>
	<g>
		<path style="fill:#777777;" d="M155.734,287.535v1.945h0.488c3.408,0.244,4.139,0.975,4.139,4.14v18.018h6.818v-25.81h-0.486
			L155.734,287.535L155.734,287.535z"/>
		<path style="fill:#777777;" d="M163.77,282.663c2.434,0,4.382-1.702,4.382-3.652c0-2.189-1.948-3.896-4.14-3.896
			c-2.434,0-4.382,1.707-4.382,3.896C159.63,280.962,161.578,282.663,163.77,282.663L163.77,282.663z"/>
		<path style="fill:#777777;" d="M196.4,292.157v-5.842l-0.488-0.244c-2.025,0-7.256-1.821-10.227,4.871c0-1.951,0-5.115,0-5.115
			h-0.73l-10.958,1.707v1.945h0.488c3.408,0.244,4.14,0.975,4.14,4.14v18.018h7.061v-12.902c0-2.195,0.486-7.305,7.061-7.305
			C193.798,291.431,194.379,291.761,196.4,292.157L196.4,292.157L196.4,292.157z"/>
		<path style="fill:#777777;" d="M223.915,296.297c0-6.817-3.896-10.469-11.688-10.469c-8.522,0-12.905,4.14-12.905,12.42
			c0,8.768,5.6,14.121,15.097,14.121c4.139,0,7.305-1.214,8.522-1.458l0.244-0.244v-3.17l-0.488,0.244
			c-1.218,0.244-3.166,0.732-5.6,0.732c-7.305,0-9.983-6.085-10.227-11.688c0.974,0,17.045,0,17.045,0L223.915,296.297
			L223.915,296.297z M211.984,288.749c3.895,0,4.87,2.682,4.87,5.115c-0.975,0-9.01,0-9.984,0
			C207.114,291.919,208.087,288.749,211.984,288.749L211.984,288.749z"/>
		<path style="fill:#777777;" d="M287.226,285.828c-5.113,0-8.036,3.165-9.74,5.603c0-2.926,0-17.291,0-17.291h-0.488l-10.957,1.463
			v1.945h0.488c3.408,0.244,4.14,0.975,4.14,4.14v29.95h6.817v-12.902c0-4.628,3.652-8.28,6.576-8.28
			c3.896,0,3.896,2.921,3.896,5.359v15.823h7.061v-16.555C295.018,292.406,295.018,285.828,287.226,285.828L287.226,285.828z"/>
		<path style="fill:#777777;" d="M326.187,296.297c0-6.817-3.896-10.469-11.445-10.469c-8.767,0-13.149,4.14-13.149,12.42
			c0,8.768,5.6,14.121,15.097,14.121c4.138,0,7.305-1.214,8.521-1.458l0.488-0.244v-3.17l-0.732,0.244
			c-1.217,0.244-3.165,0.732-5.357,0.732c-7.548,0-10.228-6.085-10.469-11.688c0.973,0,17.045,0,17.045,0L326.187,296.297
			L326.187,296.297z M314.499,288.749c3.652,0,4.628,2.682,4.628,5.115c-0.732,0-9.011,0-9.984,0
			C309.384,291.919,310.602,288.749,314.499,288.749L314.499,288.749z"/>
		<path style="fill:#777777;" d="M248.266,278.523c0,0,0,7.305,0,8.036c-0.974,0-4.626,0-4.626,0v2.921c0,0,3.652,0,4.626,0
			c0,0.975,0,15.585,0,15.585c0,6.817,4.139,7.305,9.495,7.305c1.219,0,2.68-0.244,4.14-0.488h0.244v-3.165h-0.488
			c-0.729,0.244-1.217,0.244-2.192,0.244c-4.139,0-4.381-1.219-4.381-4.628c0,0,0-13.878,0-14.853c0.973,0,7.792,0,7.792,0v-2.921
			c0,0-6.82,0-7.792,0c0-0.975,0-8.036,0-8.036L248.266,278.523L248.266,278.523z"/>
		<path style="fill:#777777;" d="M384.87,275.603h-7.061c0,0,0,24.835,0,27.517c-1.46-2.195-18.02-27.517-18.02-27.517h-16.07v1.945
			l1.46,0.244c4.14,0.732,4.384,0.975,4.384,4.871v28.974h7.548c0,0,0-26.054,0-28.731c1.46,2.189,18.993,28.731,18.993,28.731
			h9.253v-36.035h-0.487V275.603z"/>
		<path style="fill:#777777;" d="M416.283,296.297c0-6.817-3.652-10.469-11.445-10.469c-8.524,0-12.905,4.14-12.905,12.42
			c0,8.768,5.6,14.121,15.097,14.121c4.14,0,7.305-0.97,8.521-1.458l0.244-0.244v-3.17l-0.488,0.244
			c-1.217,0.244-3.408,0.732-5.6,0.732c-7.305,0-10.228-6.085-10.228-11.688c0.975,0,16.804,0,16.804,0L416.283,296.297
			L416.283,296.297z M404.595,288.749c3.652,0,4.625,2.682,4.869,5.115c-0.973,0-9.009,0-9.984,0
			C399.726,291.919,400.698,288.749,404.595,288.749L404.595,288.749z"/>
		<path style="fill:#777777;" d="M454.756,278.523c0,0,0,7.305,0,8.036c-0.975,0-4.627,0-4.627,0v2.921c0,0,3.652,0,4.627,0
			c0,0.975,0,15.585,0,15.585c0,6.817,4.14,7.305,9.496,7.305c1.217,0,2.68-0.244,4.14-0.488h0.241v-3.165h-0.485
			c-0.731,0.244-1.217,0.244-2.192,0.244c-4.14,0-4.384-1.219-4.384-4.628c0,0,0-13.878,0-14.853c0.975,0,7.792,0,7.792,0v-2.921
			c0,0-6.817,0-7.792,0c0-0.975,0-8.036,0-8.036L454.756,278.523L454.756,278.523z"/>
		<path style="fill:#777777;" d="M440.633,294.596l7.305-8.036h-7.548l-6.573,7.792l-6.088-7.792h-10.716v1.945h0.488
			c3.652,0.244,4.628,0.975,6.82,3.901l4.381,5.598l-7.305,8.28h7.548l3.167-3.652l6.817,9.006h8.28l-13.151-17.042H440.633
			L440.633,294.596z"/>
	</g>
	<polygon style="fill:#E85454;" points="454.513,278.523 447.208,278.523 456.217,268.298 463.522,268.298 	"/>
</g>
<path style="fill:#777777;" d="M53.951,311.638v-36.767l-0.486,0.244l-13.636,1.219v1.945h0.488
	c5.356,0.732,5.356,0.732,5.356,4.628v28.731L53.951,311.638L53.951,311.638z"/>
<g>
</g>
<g>
</g>
<g>
</g>
<g>
</g>
<g>
</g>
<g>
</g>
<g>
</g>
<g>
</g>
<g>
</g>
<g>
</g>
<g>
</g>
<g>
</g>
<g>
</g>
<g>
</g>
<g>
</g>
</svg>
