<?xml version="1.0" encoding="iso-8859-1"?>
<!-- Generator: Adobe Illustrator 19.0.0, SVG Export Plug-In . SVG Version: 6.00 Build 0)  -->
<svg version="1.1" id="Capa_1" xmlns="http://www.w3.org/2000/svg" xmlns:xlink="http://www.w3.org/1999/xlink" x="0px" y="0px"
	 viewBox="0 0 512.001 512.001" style="enable-background:new 0 0 512.001 512.001;" xml:space="preserve">
<g>
	<path style="fill:#579ADD;" d="M354.421,194.363c-34.696,0-54.726,26.002-54.726,61.637s20.031,61.637,54.726,61.637
		s54.727-26.001,54.727-61.637S389.117,194.363,354.421,194.363z M354.421,296.901c-22.038,0-30.536-20.286-30.536-40.901
		s8.499-40.905,30.536-40.905c22.034,0,30.536,20.29,30.536,40.905C384.958,276.615,376.456,296.901,354.421,296.901z"/>
	<path style="fill:#579ADD;" d="M2.128,314.18h82.711c1.175,0,2.128-0.953,2.128-2.128v-16.487c0-1.175-0.953-2.128-2.128-2.128
		H26.325c-1.175,0-2.128-0.953-2.128-2.128v-24.593c0-1.175,0.953-2.128,2.128-2.128h54.281c1.175,0,2.128-0.953,2.128-2.128v-15.97
		c0-1.175-0.953-2.128-2.128-2.128H26.325c-1.175,0-2.128-0.953-2.128-2.128v-21.55c0-1.175,0.953-2.128,2.128-2.128h58.514
		c1.175,0,2.128-0.953,2.128-2.128v-16.484c0-1.175-0.953-2.128-2.128-2.128H2.128c-1.175,0-2.128,0.953-2.128,2.128v112.108
		C0,313.227,0.953,314.18,2.128,314.18z"/>
</g>
<path style="fill:#4987CE;" d="M20.605,312.052V199.944c0-1.175,0.953-2.128,2.128-2.128H2.128c-1.175,0-2.128,0.953-2.128,2.128
	v112.108c0,1.175,0.953,2.128,2.128,2.128h20.605C21.558,314.18,20.605,313.227,20.605,312.052z"/>
<g>
	<path style="fill:#579ADD;" d="M143.439,197.816h-43.98c-1.175,0-2.128,0.953-2.128,2.128v112.108c0,1.175,0.953,2.128,2.128,2.128
		h19.934c1.175,0,2.128-0.953,2.128-2.128v-30.651c0-1.175,0.953-2.128,2.128-2.128h19.79c29.612,0,49.509-14.566,49.509-40.728
		C192.948,212.383,173.051,197.816,143.439,197.816z M143.439,258.54h-19.79c-1.175,0-2.128-0.953-2.128-2.128v-37.859l-0.004-0.004
		h21.922c15.205,0,25.319,6.622,25.319,19.995C168.758,251.918,158.644,258.54,143.439,258.54z"/>
	<path style="fill:#579ADD;" d="M490.425,197.816c-1.175,0-2.128,0.953-2.128,2.128v43.836c0,5.479,0.085,10.354,0.215,14.925
		c0.131,4.587-5.941,6.322-8.263,2.364l-36.491-62.202c-0.382-0.651-1.08-1.051-1.835-1.051H420.42
		c-1.175,0-2.128,0.953-2.128,2.128v112.108c0,1.175,0.953,2.128,2.128,2.128h19.451c1.175,0,2.128-0.953,2.128-2.128v-45.01
		l0.073-16.313c0.015-3.371,4.457-4.586,6.186-1.692l38.292,64.106c0.384,0.643,1.078,1.037,1.827,1.037h21.496
		c1.175,0,2.128-0.953,2.128-2.128V199.944c0-1.175-0.953-2.128-2.128-2.128H490.425z"/>
</g>
<g>
	<path style="fill:#4987CE;" d="M320.3,256c0-31.941,16.102-56.127,44.424-60.802c-3.276-0.541-6.705-0.835-10.302-0.835
		c-34.696,0-54.726,26.002-54.726,61.637s20.031,61.637,54.726,61.637c3.597,0,7.027-0.295,10.302-0.836
		C336.402,312.128,320.3,287.941,320.3,256z"/>
	<path style="fill:#4987CE;" d="M117.936,312.052V199.944c0-1.175,0.953-2.128,2.128-2.128H99.459c-1.175,0-2.128,0.953-2.128,2.128
		v112.108c0,1.175,0.953,2.128,2.128,2.128h19.934c0.115,0,0.225-0.016,0.335-0.034
		C118.714,313.984,117.936,313.112,117.936,312.052z"/>
	<path style="fill:#4987CE;" d="M438.897,312.052V199.944c0-1.175,0.953-2.128,2.128-2.128H420.42c-1.175,0-2.128,0.953-2.128,2.128
		v112.108c0,1.175,0.953,2.128,2.128,2.128h19.451c0.201,0,0.392-0.037,0.577-0.089
		C439.555,313.839,438.897,313.026,438.897,312.052z"/>
</g>
<path style="fill:#579ADD;" d="M259.75,245.813c-29.469-7.574-35.384-8.982-35.384-18.03c0-9.88,10.374-13.335,18.614-13.335
	c11.782,0,22.21,3.3,23.855,15.908c0.139,1.065,1.033,1.872,2.107,1.872h20.074c1.22,0,2.189-1.027,2.131-2.246
	c-1.213-25.507-23.181-35.618-47.02-35.618c-21.235,0-43.951,11.525-43.951,35.553c0,21.558,17.439,28.372,35.574,33.163
	c17.286,4.609,35.218,7.004,35.218,19.68c0,12.016-14.658,14.649-23.708,14.649c-13.234,0-25.713-5.574-26.77-19.748
	c-0.083-1.113-0.999-1.981-2.115-1.981h-19.992c-1.211,0-2.172,1.012-2.132,2.222c0.911,27.409,24.682,39.589,50.013,39.589
	c31.948,0,48.895-16.133,48.895-37.694C295.158,253.129,268.308,247.951,259.75,245.813z"/>
<g>
	<path style="fill:#4987CE;" d="M212.906,277.9c-0.04-1.21,0.921-2.222,2.132-2.222h-16.656c-1.211,0-2.172,1.012-2.132,2.222
		c0.911,27.409,24.682,39.589,50.013,39.589c3.022,0,5.909-0.146,8.661-0.425C232.797,314.72,213.721,302.396,212.906,277.9z"/>
	<path style="fill:#4987CE;" d="M216.941,227.227h0.001c1.43-19.421,18.286-30.015,36.165-32.358
		c-2.937-0.339-5.943-0.505-8.979-0.505c-21.235,0-43.951,11.525-43.951,35.553c0,19.931,14.908,27.258,31.489,32.036
		C214.047,247.75,216.941,227.227,216.941,227.227z"/>
</g>
<g>
</g>
<g>
</g>
<g>
</g>
<g>
</g>
<g>
</g>
<g>
</g>
<g>
</g>
<g>
</g>
<g>
</g>
<g>
</g>
<g>
</g>
<g>
</g>
<g>
</g>
<g>
</g>
<g>
</g>
</svg>
